<?xml version="1.0" encoding="UTF-8" standalone="no"?>
<!-- Created with Inkscape (http://www.inkscape.org/) -->

<svg
   width="210mm"
   height="297mm"
   viewBox="0 0 793.70081 1122.5197"
   version="1.1"
   id="svg1"
   inkscape:version="1.4.2 (ebf0e940d0, 2025-05-08)"
   sodipodi:docname="duquesa.svg"
   xml:space="preserve"
   xmlns:inkscape="http://www.inkscape.org/namespaces/inkscape"
   xmlns:sodipodi="http://sodipodi.sourceforge.net/DTD/sodipodi-0.dtd"
   xmlns="http://www.w3.org/2000/svg"
   xmlns:svg="http://www.w3.org/2000/svg"><sodipodi:namedview
     id="namedview1"
     pagecolor="#ffffff"
     bordercolor="#111111"
     borderopacity="1"
     inkscape:showpageshadow="0"
     inkscape:pageopacity="0"
     inkscape:pagecheckerboard="1"
     inkscape:deskcolor="#d1d1d1"
     inkscape:document-units="mm"
     inkscape:zoom="0.79367068"
     inkscape:cx="147.41631"
     inkscape:cy="730.78169"
     inkscape:window-width="1920"
     inkscape:window-height="963"
     inkscape:window-x="0"
     inkscape:window-y="0"
     inkscape:window-maximized="1"
     inkscape:current-layer="layer1" /><defs
     id="defs1" /><g
     inkscape:label="Layer 1"
     inkscape:groupmode="layer"
     id="layer1"><rect
       style="fill:#fcefcd;stroke-width:0.377953;stroke-linecap:round;stroke-linejoin:round;fill-opacity:1"
       id="rect1"
       width="793.70081"
       height="1122.5197"
       x="0"
       y="0" /><path
       style="fill:#e7bda3;stroke:none;stroke-width:4.93346"
       d="m 218.71767,1009.5609 16.90927,59.3956 -21.84273,59.0074 h 340.40848 l -16.32683,-108.5551 -37.94119,49.3536 v 19.7338 h -4.93345 l -9.86692,-34.5342 -44.4011,-4.9334 4.93345,-19.7339 -19.73382,-4.9334 -19.73383,14.8003 -19.73382,29.6008 9.86691,-14.8004 -64.13493,-9.8669 4.93346,-14.8004 h -19.73383 l 9.86692,14.8004 h -24.66729 l 9.86692,4.9335 -39.46765,9.8669 -14.80037,-4.9335 z"
       id="path642"
       sodipodi:nodetypes="cccccccccccccccccccccccc" /><path
       style="fill:#ca695f;stroke:none;stroke-width:4.93346"
       d="m 268.05223,901.02487 v 4.93346 h 14.80037 l -14.80037,-4.93346 m 157.8706,4.93346 19.73382,14.80037 -9.86691,-14.80037 h 44.40111 -54.26802 m 59.20147,-4.93346 v 4.93346 h 19.73383 c -9.80214,24.40758 -19.89165,28.78405 -44.40111,19.73382 v 4.93346 l 64.13493,59.20147 h 9.86692 l 9.86691,-19.73382 h -19.73383 v -59.20148 z"
       id="path609" /><path
       style="fill:#ca4c3c;stroke:none;stroke-width:4.93346"
       d="m 243.38495,777.68847 -4.93346,44.4011 c 45.15415,6.76318 99.04274,28.25815 128.26987,64.13493 l 157.87059,-78.9353 c -11.2395,-81.55822 -126.06751,-32.08044 -152.93714,9.86692 -40.51369,-40.17393 -30.38146,-58.99556 -128.26986,-39.46765 z"
       id="path544"
       sodipodi:nodetypes="cccccc" /><path
       style="fill:#e99671;stroke:none;stroke-width:4.93346"
       d="m 243.38495,777.68847 -34.53419,74.00184 h -24.66728 c -1.54141,10.91917 -6.41641,23.54156 -3.85994,34.54179 3.24848,13.97796 14.07964,25.75605 18.74787,39.44101 12.81318,37.56195 12.89043,118.23939 59.11391,128.28889 l 4.93345,29.6008 49.33457,-34.5342 -39.46765,9.8669 39.46765,-9.8669 -9.86692,-4.9335 h 24.66729 4.93345 l 64.13493,9.8669 -9.86691,14.8004 19.73382,-29.6008 19.73383,-14.8003 19.73382,4.9334 -4.93345,19.7339 44.4011,4.9334 9.86692,34.5342 h 4.93345 l 37.94119,-69.0874 21.34786,-93.71665 23.62804,-52.98512 -43.44944,-60.48437 -14.80037,-4.93346 h -4.93345 l -93.73567,43.41136 -59.20147,35.52394 C 360.46756,845.64214 243.38495,777.68847 243.38495,777.68847 Z"
       id="path542"
       sodipodi:nodetypes="cccsscccccccccccccccccccccccccc" /><path
       style="fill:#e7bda3;stroke:none;stroke-width:4.93346"
       d="m 519.6585,693.81971 -4.93346,9.86691 24.66728,4.93346 v 4.93346 l -29.60074,9.86691 -14.80036,-4.93346 v 14.80037 l -59.20148,34.53419 4.93346,14.80037 c 39.07707,-10.68369 72.57015,-9.70346 83.86875,34.5342 l 14.80037,-4.93346 43.44944,60.48437 -23.62804,52.98512 -21.34786,93.71665 c 8.36981,-34.78947 71.21005,-127.07372 81.92739,-157.92775 12.08436,-34.78965 -12.6958,-125.68389 -42.05628,-148.05692 -17.8638,-13.61249 -37.0097,-16.06738 -58.07847,-19.60442 z"
       id="path524"
       sodipodi:nodetypes="ccccccccccccccssc" /><path
       style="fill:#e7bda3;stroke:none;stroke-width:4.93346"
       d="m 223.65113,698.75317 -52.62355,24.66728 -31.24521,118.40295 49.33456,83.86875 13.28027,10.95825 -18.21372,-84.96009 h 24.66728 l 34.53419,-74.00184 64.13493,-4.93346 c 0,0 2.53387,-75.40309 -83.86875,-59.20147 z"
       id="path520"
       sodipodi:nodetypes="ccccccccccc" /><path
       style="fill:#e99671;stroke:none;stroke-width:4.93346"
       d="m 346.98753,639.55169 c -27.94507,37.11859 -79.85223,49.23274 -123.3364,59.20148 v 14.80037 c 20.32416,-6.77472 85.91411,51.02007 83.86875,59.20147 26.97076,2.01206 34.53419,34.53419 64.13493,44.40111 l 69.06839,-34.5342 v 0 l -4.93346,-14.80037 59.20148,-34.53419 v -14.80037 l 14.80036,4.93346 29.60074,-9.86691 v -4.93346 l -19.73382,-14.80037 -44.40111,-4.93345 -61.13425,-62.14369 z"
       id="path465"
       sodipodi:nodetypes="ccccccccccccccccc" /><path
       style="fill:#c47e5f;fill-opacity:1;stroke:none;stroke-width:4.93346"
       d="m 366.7214,593.89843 c -27.8792,94.26226 109.22983,17.50829 64.13489,-18.48167 z"
       id="path441"
       sodipodi:nodetypes="ccc" /><path
       style="fill:#ca695f;stroke:none;stroke-width:4.93346"
       d="m 342.05407,580.35022 -0.8451,66.16677 5.77856,2.90162 c 0,0 74.00184,-14.80037 29.60074,-13.1559 -16.76783,0.62102 -16.97815,-33.98796 0,-36.17867 v -4.93345 z"
       id="path419"
       sodipodi:nodetypes="cccsccc" /><path
       style="fill:#903d45;stroke:none;stroke-width:4.93346"
       d="m 465.39048,545.81603 4.93346,4.93345 z"
       id="path378" /><path
       style="fill:#ca4c3c;stroke:none;stroke-width:4.93346"
       d="m 376.58827,545.81603 v 4.93345 h 14.80037 z"
       id="path377" /><path
       style="fill:#ca695f;stroke:none;stroke-width:4.93346"
       d="m 297.65297,545.81603 14.80037,14.80036 z"
       id="path376" /><path
       style="fill:#ca695f;stroke:none;stroke-width:4.93346"
       d="m 141.42684,524.43768 1.64452,3.28899 -1.64452,-3.28899 m 141.42576,-3.28894 4.93346,4.93346 -4.93346,-4.93346 m 78.9353,0 14.80037,44.40111 -14.80037,-29.60074 19.73382,-4.93345 v -4.93346 z"
       id="path350" /><path
       style="fill:#853337;stroke:none;stroke-width:4.93346"
       d="m 139.78237,481.6811 4.93346,4.93345 -4.93346,-4.93345 m 458.81143,0 9.86691,9.86691 -9.86691,-9.86691 m 14.80037,0 v 4.93345 l 19.73382,9.86691 v -4.93345 z"
       id="path308" /><path
       style="fill:#d99a9a;stroke:none;stroke-width:4.93346"
       d="m 613.39417,476.74764 4.93345,4.93346 -4.93345,-4.93346 m -493.34562,4.93346 19.73382,19.73382 z"
       id="path307" /><path
       style="fill:#ca4c3c;stroke:none;stroke-width:4.93346"
       d="m 258.18532,471.81418 4.93345,4.93346 z"
       id="path304" /><path
       style="fill:#ca4c3c;stroke:none;stroke-width:4.93346"
       d="m 282.8526,466.88073 4.93346,4.93345 z"
       id="path301" /><path
       style="fill:#ca695f;stroke:none;stroke-width:4.93346"
       d="m 376.58827,457.01381 -4.93346,44.40111 9.86691,9.86691 9.86692,-4.93345 -9.86692,9.86691 v 4.93345 c 24.43378,-5.23577 7.10477,-50.36392 -4.93345,-64.13493 z"
       id="path293" /><path
       style="fill:#ca4c3c;stroke:none;stroke-width:4.93346"
       d="m 337.12062,457.01381 4.93345,4.93346 z"
       id="path292" /><path
       style="fill:#903d45;stroke:none;stroke-width:4.93346"
       d="m 332.18716,457.01381 14.80037,9.86692 v -4.93346 z"
       id="path291" /><path
       style="fill:#853337;stroke:none;stroke-width:4.93346"
       d="m 327.25371,457.01381 4.93345,4.93346 z"
       id="path290" /><path
       style="fill:#903d45;stroke:none;stroke-width:4.93346"
       d="m 312.45334,457.01381 v 4.93346 h 14.80037 z"
       id="path289" /><path
       style="fill:#ca4c3c;stroke:none;stroke-width:4.93346"
       d="m 282.8526,457.01381 4.93346,4.93346 z"
       id="path288" /><path
       style="fill:#ca695f;stroke:none;stroke-width:4.93346"
       d="m 230.2291,460.3028 1.64447,3.28894 -1.64447,-3.28894 m 47.26133,-3.51173 0.42871,19.95657 c 30.58349,8.72269 65.07722,7.95347 74.0018,-9.86691 z"
       id="path287"
       sodipodi:nodetypes="ccccccc" /><path
       style="fill:#903d45;stroke:none;stroke-width:4.93346"
       d="m 465.39048,452.08036 4.93346,4.93345 -4.93346,-4.93345 m 16.44489,3.28899 1.64446,3.28893 z"
       id="path280" /><path
       style="fill:#ca695f;stroke:none;stroke-width:4.93346"
       d="m 411.12246,452.08036 4.93346,4.93345 -4.93346,-4.93345 m 18.08936,1.64447 3.28898,1.64452 z"
       id="path278" /><path
       style="fill:#ca4c3c;stroke:none;stroke-width:4.93346"
       d="m 297.65297,452.08036 4.93345,4.93345 z"
       id="path277" /><path
       style="fill:#903d45;stroke:none;stroke-width:4.93346"
       d="m 292.71951,452.08036 4.93346,4.93345 z"
       id="path276" /><path
       style="fill:#853337;stroke:none;stroke-width:4.93346"
       d="m 289.95998,448.96291 -12.46955,7.82816 71.31607,9.66745 -14.58143,-16.90626 z"
       id="path275"
       sodipodi:nodetypes="ccccc" /><path
       style="fill:#e7bda3;stroke:none;stroke-width:4.93346"
       d="m 583.79343,447.1469 4.93345,4.93346 -4.93345,-4.93346 m -483.47871,4.93346 4.93346,4.93345 z"
       id="path272" /><path
       style="fill:#853337;stroke:none;stroke-width:4.93346"
       d="m 494.99122,442.21345 -78.9353,29.60073 74.00184,-9.86691 4.93346,-9.86691 z"
       id="path268"
       sodipodi:nodetypes="ccccc" /><path
       style="fill:#ca695f;stroke:none;stroke-width:4.93346"
       d="m 353.5655,450.43589 1.64447,3.28894 z"
       id="path267" /><path
       style="fill:#903d45;stroke:none;stroke-width:4.93346"
       d="m 277.27222,446.63575 0.21806,10.15532 12.4697,-7.82816 z"
       id="path266"
       sodipodi:nodetypes="cccc" /><path
       style="fill:#ca4c3c;stroke:none;stroke-width:4.93346"
       d="m 519.6585,442.21345 4.93345,4.93345 -4.93345,-4.93345 m -261.47318,4.93345 4.93345,4.93346 z"
       id="path265" /><path
       style="fill:#903d45;stroke:none;stroke-width:4.93346"
       d="m 480.19085,442.21345 4.93345,4.93345 -4.93345,-4.93345 m 24.66728,0 4.93345,4.93345 z"
       id="path264" /><path
       style="fill:#ca4c3c;stroke:none;stroke-width:4.93346"
       d="m 277.91914,442.21345 4.93346,4.93345 z"
       id="path263" /><path
       style="fill:#ca695f;stroke:none;stroke-width:4.93346"
       d="m 268.05223,442.21345 -4.93346,14.80036 -27.134,-9.86691 32.06746,39.4676 z"
       id="path262"
       sodipodi:nodetypes="ccccc" /><path
       style="fill:#903d45;stroke:none;stroke-width:4.93346"
       d="m 253.25186,442.21345 4.93346,4.93345 z"
       id="path261" /><path
       style="fill:#e99671;stroke:none;stroke-width:4.93346"
       d="m 490.05776,437.27999 4.93346,4.93346 z"
       id="path258" /><path
       style="fill:#ca695f;stroke:none;stroke-width:4.93346"
       d="m 416.05592,437.27999 4.93345,4.93346 z"
       id="path257" /><path
       style="fill:#ca4c3c;stroke:none;stroke-width:4.93346"
       d="m 346.98753,437.27999 4.93346,4.93346 z"
       id="path256" /><path
       style="fill:#ca695f;stroke:none;stroke-width:4.93346"
       d="m 342.05407,437.27999 4.93346,4.93346 z"
       id="path255"
       sodipodi:nodetypes="ccc" /><path
       style="fill:#e99671;stroke:none;stroke-width:4.93346"
       d="m 485.1243,432.34653 4.93346,4.93346 z"
       id="path253" /><path
       style="fill:#ca695f;stroke:none;stroke-width:4.93346"
       d="m 424.27836,433.991 3.28899,1.64452 z"
       id="path252" /><path
       style="fill:#903d45;stroke:none;stroke-width:4.93346"
       d="m 416.05592,432.34653 -4.93346,9.86692 z"
       id="path251" /><path
       style="fill:#ca695f;stroke:none;stroke-width:4.93346"
       d="m 407.83352,435.63552 1.64447,3.28894 z"
       id="path250" /><path
       style="fill:#b48996;stroke:none;stroke-width:4.93346"
       d="m 435.78974,427.41308 4.93346,4.93345 z"
       id="path246" /><path
       style="fill:#ca695f;stroke:none;stroke-width:4.93346"
       d="m 430.85629,427.41308 4.93345,4.93345 z"
       id="path245" /><path
       style="fill:#903d45;stroke:none;stroke-width:4.93346"
       d="m 411.12246,427.41308 4.93346,4.93345 -4.93346,-4.93345 m 14.80037,0 4.93346,4.93345 z"
       id="path244" /><path
       style="fill:#b48996;stroke:none;stroke-width:4.93346"
       d="m 406.189,427.41308 4.93346,4.93345 z"
       id="path243" /><path
       style="fill:#903d45;stroke:none;stroke-width:4.93346"
       d="m 332.18716,427.41308 4.93346,4.93345 -4.93346,-4.93345 m 14.80037,0 4.93346,4.93345 z"
       id="path242" /><path
       style="fill:#903d45;stroke:none;stroke-width:4.93346"
       d="m 282.8526,427.41308 4.93346,4.93345 z"
       id="path240" /><path
       style="fill:#ca695f;stroke:none;stroke-width:4.93346"
       d="m 490.05776,461.94727 c -27.3052,3.89694 -74.00184,9.86691 -74.00184,9.86691 3.91563,31.15996 56.52038,8.88309 74.00184,0 l 4.93346,14.80037 c 24.23333,-8.0362 28.65213,-0.35521 21.8038,-25.49842 l -21.8038,-9.03577 z"
       id="path236"
       sodipodi:nodetypes="ccccccc" /><path
       style="fill:#b48996;stroke:none;stroke-width:4.93346"
       d="m 411.12246,417.54616 4.93346,4.93346 z"
       id="path227" /><path
       style="fill:#903d45;stroke:none;stroke-width:4.93346"
       d="m 297.65297,422.47962 v 4.93346 h 24.66728 l -24.66728,-4.93346 m 29.60074,-4.93346 4.93345,4.93346 -4.93345,-4.93346 m 14.80036,0 4.93346,4.93346 z"
       id="path224" /><path
       style="fill:#853337;stroke:none;stroke-width:4.93346"
       d="m 406.18905,442.21359 88.80217,-1.4e-4 c -19.33451,-8.3404 -73.9569,-26.45902 -88.80217,1.4e-4 z"
       id="path217"
       sodipodi:nodetypes="ccc" /><path
       style="fill:#853337;stroke:none;stroke-width:4.93346"
       d="m 267.6132,437.85079 89.24124,4.36266 c -7.3837,-27.12735 -67.38282,-26.68344 -89.24124,-4.36266 z"
       id="path215"
       sodipodi:nodetypes="ccc" /><path
       style="fill:#853337;stroke:none;stroke-width:4.93346"
       d="m 126.62647,410.96824 1.64452,3.28894 -1.64452,-3.28894 m 13.1559,-3.28899 4.93346,4.93346 -4.93346,-4.93346 m 124.92888,1.33638 -60.79395,23.3309 -18.98389,69.06839 59.09106,113.98341 -20.37334,83.35484 c 46.36654,-12.65614 151.29686,-43.92893 113.33244,-112.63204 -16.73133,-30.2782 -47.00375,-44.76164 -59.06443,-79.77275 -60.42112,4.32871 -61.04328,-86.33115 -10.30594,-68.49759 z"
       id="path199"
       sodipodi:nodetypes="cccccccccccsccc" /><path
       style="fill:#853337;stroke:none;stroke-width:4.93346"
       d="m 490.05776,402.7458 4.93346,49.33456 c 52.40677,-18.32039 45.93407,64.5265 -9.86692,54.26802 -8.13704,42.05431 -43.62107,51.32491 -63.42688,83.94108 -38.06339,62.68276 59.84949,95.88093 102.89453,103.53025 v -49.33456 h -19.73382 l -4.93346,-49.33456 9.86691,9.86691 h 4.93346 v -29.60074 h 14.80037 C 535.78177,512.57415 564.13499,434.1136 490.05776,402.7458 Z"
       id="path195" /><path
       style="fill:#e7bda3;stroke:none;stroke-width:4.93346"
       d="m 618.32762,392.87888 4.93346,4.93346 -4.93346,-4.93346 m -518.0129,4.93346 4.93346,4.93346 z"
       id="path184" /><path
       style="fill:#853337;stroke:none;stroke-width:4.93346"
       d="m 124.982,383.01197 -14.80037,24.66728 14.80037,-24.66728 m 210.49415,1.64447 3.28899,1.64452 -3.28899,-1.64452 m 29.60074,0 3.28898,1.64452 z"
       id="path166" /><path
       style="fill:#e99671;stroke:none;stroke-width:4.93346"
       d="M 405.84351,330.24698 C 372.6563,362.559 348.0983,394.40599 302.58647,400.27907 l -34.97327,37.57172 c 10.81187,-11.61513 81.26399,-17.88299 89.24124,4.36266 l -79.79288,-5.3789 0.21066,9.8012 c 15.74892,4.91416 49.31369,1.78665 61.43963,12.91327 14.37175,13.18737 2.66264,19.65385 -11.00535,20.38958 -10.05532,0.5412 -35.03746,-0.57149 -49.78731,-3.19096 l -0.85758,-39.91309 -9.44841,1.01624 0.43908,48.76381 -22.91857,-29.83749 -9.14894,-9.63021 c -3.04962,56.89272 34.16196,51.66695 41.93437,59.20148 28.38849,27.51955 48.62444,73.7156 88.80226,87.55005 51.02876,17.5707 105.86941,-51.3263 118.4029,-92.48351 36.43861,8.86601 45.20551,-23.18621 43.20988,-40.71221 l -11.53916,0.41342 -21.80375,25.49857 -4.93346,-14.80037 c -17.25175,5.36405 -69.20998,32.70946 -74.00184,0 l 78.93525,-29.60088 -88.80217,1.4e-4 15.06268,-10.03854 73.73949,10.0384 -4.93341,-39.46751 z"
       id="path126"
       sodipodi:nodetypes="ccccccssccccccsscccccccccccc" /><path
       style="fill:#903d45;stroke:none;stroke-width:4.93346"
       d="m 312.45334,254.74211 c -14.48981,-8.50187 -33.84164,14.63707 -44.37827,24.86141 -30.6668,29.75802 -51.75758,78.39094 -98.69196,83.67463 v 9.86691 l -9.86692,4.93345 c -9.8414,64.86301 -24.4583,128.61511 -39.46764,192.4048 v 4.93345 l -9.86692,4.93346 9.86692,14.80037 4.93345,-19.73383 -4.93345,19.73383 v 34.53419 l 14.80036,4.93346 19.73383,29.60073 14.80037,-4.93345 c 9.07914,18.16045 19.01965,25.38071 39.46765,24.66728 l 14.80037,14.80037 22.26148,-83.35484 -60.08467,-113.98341 18.08936,-69.06839 60.79395,-23.3309 2.90195,28.83516 c 22.47249,-24.14216 58.67291,-46.23546 94.1747,-44.97191 l 14.80037,-4.93345 4.93345,-14.80037 14.80037,4.93345 9.86691,-34.53419 h 4.93346 c 14.83707,21.24751 40.77719,53.53866 69.06839,54.26802 l 9.86691,24.66728 2.46675,7e-5 -2.46675,-19.73389 c 70.61626,44.1752 43.05052,102.71381 39.46765,172.67096 h -14.80037 v 29.60074 h -4.93346 l -9.86691,-9.86691 4.93346,49.33456 h 19.73382 v 49.33456 l 20.22974,-10.36282 24.17137,-43.9052 -4.93346,-14.80037 34.5342,-24.66728 14.80037,-19.73382 9.86691,-4.93346 -4.93346,-14.80037 9.86691,4.93346 c 12.33364,-7.40018 -3.44907,-27.99628 9.86692,-24.66728 l -9.86692,-34.53419 3.07577,10.76524 6.79115,-25.56561 -24.66728,-14.80037 c -18.14146,-5.11955 -25.61925,-16.53043 -29.60074,-34.53419 -31.4462,4e-5 31.69736,-60.55147 -14.80037,-54.26802 l -19.73383,-29.60074 -49.33456,-39.46765 v -4.93346 l 9.86691,-4.93345 c -7.84212,-11.0353 -31.4416,-46.09881 -44.4011,-34.5342 L 406.189,244.8752 391.38864,239.94174 Z"
       id="path20"
       sodipodi:nodetypes="ccccccccccccccccccccccccccccccccccccccccccccccccccccccccccccccc"
       inkscape:label="path20" /></g></svg>
