<?xml version="1.0" encoding="UTF-8" standalone="no"?>
<!-- Created with Inkscape (http://www.inkscape.org/) -->

<svg
   width="210mm"
   height="297mm"
   viewBox="0 0 793.70081 1122.5197"
   version="1.1"
   id="svg1"
   inkscape:version="1.4 (e7c3feb100, 2024-10-09)"
   sodipodi:docname="pulseras.svg"
   xml:space="preserve"
   xmlns:inkscape="http://www.inkscape.org/namespaces/inkscape"
   xmlns:sodipodi="http://sodipodi.sourceforge.net/DTD/sodipodi-0.dtd"
   xmlns="http://www.w3.org/2000/svg"
   xmlns:svg="http://www.w3.org/2000/svg"><sodipodi:namedview
     id="namedview1"
     pagecolor="#ffffff"
     bordercolor="#111111"
     borderopacity="1"
     inkscape:showpageshadow="0"
     inkscape:pageopacity="0"
     inkscape:pagecheckerboard="1"
     inkscape:deskcolor="#d1d1d1"
     inkscape:document-units="mm"
     inkscape:zoom="0.60023085"
     inkscape:cx="607.26636"
     inkscape:cy="555.61956"
     inkscape:window-width="1534"
     inkscape:window-height="803"
     inkscape:window-x="0"
     inkscape:window-y="0"
     inkscape:window-maximized="1"
     inkscape:current-layer="layer1" /><defs
     id="defs1"><inkscape:path-effect
       effect="powerstroke"
       message=""
       id="path-effect12"
       is_visible="true"
       lpeversion="1.3"
       scale_width="1"
       interpolator_type="CentripetalCatmullRom"
       interpolator_beta="0.2"
       start_linecap_type="zerowidth"
       end_linecap_type="zerowidth"
       offset_points="0.2,1.889765 | 0.5,1.889765 | 0.8,1.889765"
       linejoin_type="round"
       miter_limit="4"
       not_jump="false"
       sort_points="true" /><inkscape:path-effect
       effect="powerstroke"
       message=""
       id="path-effect11"
       is_visible="true"
       lpeversion="1.3"
       scale_width="1"
       interpolator_type="CentripetalCatmullRom"
       interpolator_beta="0.2"
       start_linecap_type="zerowidth"
       end_linecap_type="zerowidth"
       offset_points="0.2,1.889765 | 0.5,1.889765 | 0.8,1.889765"
       linejoin_type="round"
       miter_limit="4"
       not_jump="false"
       sort_points="true" /><inkscape:path-effect
       effect="powerstroke"
       message=""
       id="path-effect5"
       is_visible="true"
       lpeversion="1.3"
       scale_width="1"
       interpolator_type="CentripetalCatmullRom"
       interpolator_beta="0.2"
       start_linecap_type="zerowidth"
       end_linecap_type="zerowidth"
       offset_points="0.2,2.834645 | 0.5,2.834645 | 0.8,2.834645"
       linejoin_type="round"
       miter_limit="4"
       not_jump="false"
       sort_points="true" /><inkscape:path-effect
       effect="powerstroke"
       message=""
       id="path-effect1"
       is_visible="true"
       lpeversion="1.3"
       scale_width="1"
       interpolator_type="CentripetalCatmullRom"
       interpolator_beta="0.2"
       start_linecap_type="zerowidth"
       end_linecap_type="zerowidth"
       offset_points="0.2,2.834645 | 0.5,2.834645 | 0.8,2.834645"
       linejoin_type="round"
       miter_limit="4"
       not_jump="false"
       sort_points="true" /><inkscape:path-effect
       effect="fill_between_many"
       method="bsplinespiro"
       autoreverse="false"
       close="false"
       join="false"
       linkedpaths="#path1,0,1"
       id="path-effect2" /></defs><g
     inkscape:label="Layer 1"
     inkscape:groupmode="layer"
     id="layer1"><rect
       style="fill:#111112;stroke-width:0.377953;stroke-linecap:round;stroke-linejoin:round;fill-opacity:1"
       id="rect1"
       width="793.70081"
       height="1122.5197"
       x="0"
       y="0" /><path
       style="fill:#355997;fill-opacity:1;fill-rule:nonzero;stroke:none;stroke-width:5.66929;stroke-linecap:round;stroke-linejoin:round;stroke-opacity:1"
       d="m 7.1956392,843.68869 c 26.2863128,-3.43033 99.9083108,-12.51336 157.7178808,-20.582 70.79635,-9.88124 157.30103,-23.38582 235.95155,-35.07874 78.65051,-11.69291 165.34254,-23.93735 235.95155,-35.07874 57.65659,-9.09762 130.73682,-21.82471 156.88419,-26.18965 -26.28631,3.43033 -99.90831,12.51336 -157.71788,20.582 -70.79635,9.88124 -157.30103,23.38582 -235.95155,35.07874 -78.65052,11.69291 -165.34254,23.93735 -235.95155,35.07874 -57.65659,9.09762 -130.736826,21.82471 -156.8841908,26.18965 z"
       id="path1"
       inkscape:path-effect="#path-effect1"
       inkscape:original-d="M 7.1956392,843.68869 793.70081,726.75956"
       inkscape:linked-fill="path2" /><path
       style="fill:#172338;fill-opacity:1;stroke:#355997;stroke-width:5.66929;stroke-linecap:round;stroke-linejoin:round;stroke-opacity:1"
       d="M 476.44173,772.92233 466.07874,281.54992 699.53091,298.97181 718.65373,735.3607"
       id="path3"
       sodipodi:nodetypes="cccc" /><path
       style="fill:#172338;fill-opacity:1;stroke:#355997;stroke-width:3.79697;stroke-linecap:round;stroke-linejoin:round;stroke-opacity:1"
       d="m 372.06019,541.89382 -5.23115,-221.47086 -248.90069,-11.86034 6.68341,243.84922 z"
       id="path5"
       sodipodi:nodetypes="ccccc" /><path
       style="fill:#5773a5;fill-opacity:1;stroke:none;stroke-width:16.1321;stroke-linecap:round;stroke-linejoin:round;stroke-dasharray:none;stroke-opacity:1"
       d="m 209.22947,549.71454 c 0,0 -4.77079,-50.51524 31.01019,-52.90066 0,0 -25.44426,-42.93714 14.31237,-50.09334 39.75667,-7.15621 27.82968,46.91283 27.82968,46.91283 0,0 60.43011,-7.1562 54.06904,49.29826"
       id="path12"
       sodipodi:nodetypes="ccscc" /><path
       style="fill:none;fill-opacity:1;stroke:#355997;stroke-width:3.79697;stroke-linecap:round;stroke-linejoin:round;stroke-opacity:1"
       d="m 372.06019,541.89382 -5.23115,-221.47086 -248.90069,-11.86034 6.68341,243.84922 z"
       id="path13"
       sodipodi:nodetypes="ccccc" /><path
       style="display:inline;fill:#355997;fill-opacity:1;fill-rule:nonzero;stroke:none;stroke-width:3.77953;stroke-linecap:round;stroke-linejoin:round;stroke-dasharray:none;stroke-opacity:1"
       d="m 121.59274,434.26087 c 8.20403,0.2998 31.15554,1.48549 49.22417,1.79883 22.12131,0.38362 49.22067,-0.0909 73.83101,-0.1364 24.61034,-0.0455 51.71127,0.32895 73.83102,-0.1364 18.06734,-0.3801 41.01432,-1.65058 49.21718,-1.9807 -8.20403,-0.2998 -31.15554,-1.48549 -49.22417,-1.79883 -22.12131,-0.38362 -49.22067,0.0909 -73.83101,0.1364 -24.61034,0.0455 -51.71127,-0.32895 -73.83102,0.1364 -18.06734,0.3801 -41.01432,1.65058 -49.21718,1.9807 z"
       id="path10"
       sodipodi:nodetypes="cc"
       inkscape:path-effect="#path-effect11"
       inkscape:original-d="M 121.59274,434.26087 367.69612,433.8062" /><path
       style="fill:#355997;fill-opacity:1;fill-rule:nonzero;stroke:none;stroke-width:3.77953;stroke-linecap:round;stroke-linejoin:round;stroke-dasharray:none;stroke-opacity:1"
       d="m 259.68549,546.67041 c 0.11428,-7.70901 0.78084,-29.28364 0.68565,-46.25407 -0.11653,-20.77577 -1.20347,-46.20487 -1.8052,-69.3073 -0.60174,-23.10244 -0.84005,-48.55364 -1.80521,-69.30731 -0.78837,-16.95237 -2.57716,-38.46305 -3.09259,-46.15566 -0.11428,7.70901 -0.78084,29.28364 -0.68565,46.25407 0.11653,20.77577 1.20347,46.20487 1.8052,69.3073 0.60174,23.10244 0.84005,48.55364 1.80521,69.30731 0.78837,16.95237 2.57716,38.46305 3.09259,46.15566 z"
       id="path11"
       sodipodi:nodetypes="cc"
       inkscape:path-effect="#path-effect12"
       inkscape:original-d="M 259.68549,546.67041 253.66814,315.64607" /><path
       style="fill:#3d5c93;fill-opacity:1;stroke:none;stroke-width:3.77953;stroke-linecap:round;stroke-linejoin:round;stroke-dasharray:none;stroke-opacity:1"
       id="path14"
       sodipodi:type="arc"
       sodipodi:cx="504.28076"
       sodipodi:cy="533.61652"
       sodipodi:rx="8.7857075"
       sodipodi:ry="10.468077"
       sodipodi:start="1.2900283"
       sodipodi:end="1.2421143"
       sodipodi:open="true"
       sodipodi:arc-type="arc"
       d="m 506.71523,543.67469 a 8.7857075,10.468077 0 0 1 -10.84639,-7.03727 8.7857075,10.468077 0 0 1 5.77594,-13.00671 8.7857075,10.468077 0 0 1 10.98475,6.72567 8.7857075,10.468077 0 0 1 -5.51278,13.16784" /><path
       style="fill:#3d5c93;fill-opacity:1;stroke:none;stroke-width:3.77953;stroke-linecap:round;stroke-linejoin:round;stroke-dasharray:none;stroke-opacity:1"
       d="m 496.91773,537.79096 -4.47926,0.97984 c 0,0 -1.53975,-3.49942 -0.41993,-6.85887 l 6.29896,-0.41993"
       id="path15" /></g><g
     inkscape:groupmode="layer"
     id="layer2"
     inkscape:label="perspective"
     style="display:none"><path
       style="fill:none;fill-opacity:1;stroke:#975435;stroke-width:5.66929;stroke-linecap:round;stroke-linejoin:round;stroke-opacity:1"
       d="M -20.682819,852.59177 2666.8043,435.95769"
       id="path6" /><path
       style="fill:none;fill-opacity:1;stroke:#975435;stroke-width:5.66929;stroke-linecap:round;stroke-linejoin:round;stroke-opacity:1"
       d="M 415.52298,281.43545 2666.0073,434.60977"
       id="path7" /><path
       style="fill:none;fill-opacity:1;stroke:#975435;stroke-width:5.66929;stroke-linecap:round;stroke-linejoin:round;stroke-opacity:1"
       d="M 87.82572,548.15363 2666.0073,434.60977 96.911139,314.9612"
       id="path8" /><path
       style="fill:none;fill-opacity:1;stroke:#975435;stroke-width:5.66929;stroke-linecap:round;stroke-linejoin:round;stroke-opacity:1"
       d="M 2666.0073,434.60977 83.244241,432.66451"
       id="path9" /></g></svg>
