<?xml version="1.0" encoding="UTF-8" standalone="no"?>
<!-- Created with Inkscape (http://www.inkscape.org/) -->

<svg
   width="210mm"
   height="82mm"
   viewBox="0 0 793.70081 309.92126"
   version="1.1"
   id="svg1"
   inkscape:version="1.4.2 (ebf0e940d0, 2025-05-08)"
   sodipodi:docname="duquesa.svg"
   xml:space="preserve"
   xmlns:inkscape="http://www.inkscape.org/namespaces/inkscape"
   xmlns:sodipodi="http://sodipodi.sourceforge.net/DTD/sodipodi-0.dtd"
   xmlns="http://www.w3.org/2000/svg"
   xmlns:svg="http://www.w3.org/2000/svg"><sodipodi:namedview
     id="namedview1"
     pagecolor="#ffffff"
     bordercolor="#111111"
     borderopacity="1"
     inkscape:showpageshadow="0"
     inkscape:pageopacity="0"
     inkscape:pagecheckerboard="1"
     inkscape:deskcolor="#d1d1d1"
     inkscape:document-units="mm"
     inkscape:zoom="2.2448397"
     inkscape:cx="338.10878"
     inkscape:cy="203.13255"
     inkscape:window-width="1920"
     inkscape:window-height="963"
     inkscape:window-x="0"
     inkscape:window-y="0"
     inkscape:window-maximized="1"
     inkscape:current-layer="layer1" /><defs
     id="defs1" /><g
     inkscape:label="Layer 1"
     inkscape:groupmode="layer"
     id="layer1"><rect
       style="fill:#fcefcd;fill-opacity:1;stroke-width:0.377953;stroke-linecap:round;stroke-linejoin:round"
       id="rect1"
       width="793.70081"
       height="1122.5197"
       x="0"
       y="-226" /><g
       id="g1"
       transform="translate(8.2152368)"><path
         style="fill:#e7bda3;stroke:none;stroke-width:3.55746"
         d="m 280.13259,543.95954 12.19309,42.82951 -15.75055,42.54959 h 245.46481 l -11.7731,-78.27789 -27.35897,35.58834 v 14.22983 h -3.55746 l -7.11493,-24.90224 -32.01714,-3.55742 3.55745,-14.22989 -14.22984,-3.55742 -14.22984,10.67233 -14.22984,21.34481 7.11492,-10.67241 -46.247,-7.11491 3.55747,-10.6724 h -14.22985 l 7.11493,10.6724 h -17.78731 l 7.11492,3.55749 -28.45968,7.11492 -10.67239,-3.5575 z"
         id="path642"
         sodipodi:nodetypes="cccccccccccccccccccccccc" /><path
         style="fill:#ca695f;stroke:none;stroke-width:3.55746"
         d="m 315.7072,465.6954 v 3.55747 h 10.67239 L 315.7072,465.6954 m 113.83875,3.55747 14.22984,10.67238 -7.11492,-10.67238 h 32.01716 -39.13208 m 42.68953,-3.55747 v 3.55747 h 14.22985 c -7.06822,17.60003 -14.34365,20.75586 -32.01715,14.22984 v 3.55746 l 46.24699,42.68953 h 7.11493 l 7.11492,-14.22984 h -14.22985 v -42.68954 z"
         id="path609" /><path
         style="fill:#ca4c3c;stroke:none;stroke-width:3.55746"
         d="m 297.9199,376.75888 -3.55747,32.01715 c 32.56016,4.87685 71.41863,20.37664 92.494,46.24699 l 113.83874,-56.91938 c -8.10468,-58.81073 -90.90589,-23.13285 -110.28129,7.11493 -29.21397,-28.96898 -21.90773,-42.54105 -92.49398,-28.45969 z"
         id="path544"
         sodipodi:nodetypes="cccccc" /><path
         style="fill:#e99671;stroke:none;stroke-width:3.55746"
         d="m 297.9199,376.75888 -24.90223,53.36192 h -17.7873 c -1.11149,7.87369 -4.6268,16.97556 -2.78336,24.9077 2.34244,10.07935 10.15267,18.5724 13.51888,28.44048 9.23945,27.08551 9.29515,85.26112 42.62639,92.5077 l 3.55746,21.34482 35.57461,-24.90224 -28.45968,7.11492 28.45968,-7.11492 -7.11492,-3.55749 h 17.78731 3.55745 l 46.247,7.11491 -7.11492,10.67241 14.22984,-21.34481 14.22984,-10.67233 14.22984,3.55742 -3.55745,14.22989 32.01714,3.55742 7.11493,24.90224 h 3.55746 l 27.35897,-49.81817 15.39371,-67.57804 17.03792,-38.20699 -31.33092,-43.61461 -10.67238,-3.55747 h -3.55746 l -67.59176,31.30346 -42.68952,25.61592 C 382.34688,425.75953 297.9199,376.75888 297.9199,376.75888 Z"
         id="path542"
         sodipodi:nodetypes="cccsscccccccccccccccccccccccccc" /><path
         style="fill:#e7bda3;stroke:none;stroke-width:3.55746"
         d="m 497.13771,316.28204 -3.55746,7.11492 17.7873,3.55747 v 3.55746 l -21.34476,7.11492 -10.67238,-3.55746 v 10.67238 l -42.68954,24.90223 3.55747,10.67238 c 28.17804,-7.70389 52.32953,-6.99706 60.47683,24.90223 l 10.67238,-3.55746 31.33092,43.61461 -17.03792,38.20699 -15.39371,67.57804 c 6.03538,-25.0863 51.34878,-91.63146 59.07694,-113.87996 8.7139,-25.08643 -9.1548,-90.62927 -30.32632,-106.76221 -12.88139,-9.81582 -26.68729,-11.58602 -41.87975,-14.13654 z"
         id="path524"
         sodipodi:nodetypes="ccccccccccccccssc" /><path
         style="fill:#e7bda3;stroke:none;stroke-width:3.55746"
         d="m 283.69006,319.83951 -37.94627,17.7873 -22.53057,85.37907 35.57461,60.47683 9.57625,7.90187 -13.13371,-61.26378 h 17.7873 l 24.90223,-53.36192 46.24699,-3.55746 c 0,0 1.82715,-54.37234 -60.47683,-42.68953 z"
         id="path520"
         sodipodi:nodetypes="ccccccccccc" /><path
         style="fill:#e99671;stroke:none;stroke-width:3.55746"
         d="m 372.62658,277.14997 c -20.15088,26.76581 -57.58057,35.50119 -88.93652,42.68954 v 10.67238 c 14.65553,-4.88517 61.95172,36.79001 60.47683,42.68953 19.44832,1.45087 24.90222,24.90222 46.24699,32.01715 l 49.80446,-24.90223 v 0 l -3.55747,-10.67238 42.68954,-24.90223 v -10.67238 l 10.67238,3.55746 21.34476,-7.11492 v -3.55746 l -14.22984,-10.67239 -32.01715,-3.55745 -44.08323,-44.81113 z"
         id="path465"
         sodipodi:nodetypes="ccccccccccccccccc" /><path
         style="fill:#c47e5f;fill-opacity:1;stroke:none;stroke-width:3.55746"
         d="m 386.85645,244.22991 c -20.10338,67.97148 78.76443,12.62503 46.24697,-13.32693 z"
         id="path441"
         sodipodi:nodetypes="ccc" /><path
         style="fill:#ca695f;stroke:none;stroke-width:3.55746"
         d="m 369.06911,234.46044 -0.60939,47.71213 4.16686,2.09233 c 0,0 53.36191,-10.67238 21.34477,-9.48658 -12.0911,0.44782 -12.24276,-24.50834 0,-26.08804 v -3.55745 z"
         id="path419"
         sodipodi:nodetypes="cccsccc" /><path
         style="fill:#903d45;stroke:none;stroke-width:3.55746"
         d="m 458.00564,209.55822 3.55747,3.55746 z"
         id="path378" /><path
         style="fill:#ca4c3c;stroke:none;stroke-width:3.55746"
         d="m 393.97135,209.55822 v 3.55746 h 10.67238 z"
         id="path377" /><path
         style="fill:#ca695f;stroke:none;stroke-width:3.55746"
         d="m 337.05197,209.55822 10.67238,10.67238 z"
         id="path376" /><path
         style="fill:#ca695f;stroke:none;stroke-width:3.55746"
         d="m 224.39903,194.14253 1.18584,2.37165 -1.18584,-2.37165 m 101.98056,-2.37162 3.55746,3.55746 -3.55746,-3.55746 m 56.91937,0 10.67239,32.01715 -10.67239,-21.34477 14.22984,-3.55745 v -3.55747 z"
         id="path350" /><path
         style="fill:#853337;stroke:none;stroke-width:3.55746"
         d="m 223.21322,163.31123 3.55746,3.55745 -3.55746,-3.55745 m 330.84387,0 7.11492,7.11492 -7.11492,-7.11492 m 10.67238,0 v 3.55745 l 14.22984,7.11492 v -3.55745 z"
         id="path308" /><path
         style="fill:#d99a9a;stroke:none;stroke-width:3.55746"
         d="m 564.72947,159.75376 3.55746,3.55747 -3.55746,-3.55747 m -355.74609,3.55747 14.22984,14.22984 z"
         id="path307" /><path
         style="fill:#ca4c3c;stroke:none;stroke-width:3.55746"
         d="m 308.59228,156.1963 3.55746,3.55746 z"
         id="path304" /><path
         style="fill:#ca4c3c;stroke:none;stroke-width:3.55746"
         d="m 326.37959,152.63884 3.55746,3.55746 z"
         id="path301" /><path
         style="fill:#ca695f;stroke:none;stroke-width:3.55746"
         d="m 393.97135,145.52392 -3.55747,32.01715 7.11492,7.11492 7.11493,-3.55746 -7.11493,7.11492 v 3.55746 c 17.61893,-3.77546 5.12317,-36.31687 -3.55745,-46.24699 z"
         id="path293" /><path
         style="fill:#ca4c3c;stroke:none;stroke-width:3.55746"
         d="m 365.51166,145.52392 3.55745,3.55746 z"
         id="path292" /><path
         style="fill:#903d45;stroke:none;stroke-width:3.55746"
         d="m 361.95419,145.52392 10.67239,7.11492 v -3.55746 z"
         id="path291" /><path
         style="fill:#853337;stroke:none;stroke-width:3.55746"
         d="m 358.39674,145.52392 3.55745,3.55746 z"
         id="path290" /><path
         style="fill:#903d45;stroke:none;stroke-width:3.55746"
         d="m 347.72435,145.52392 v 3.55746 h 10.67239 z"
         id="path289" /><path
         style="fill:#ca4c3c;stroke:none;stroke-width:3.55746"
         d="m 326.37959,145.52392 3.55746,3.55746 z"
         id="path288" /><path
         style="fill:#ca695f;stroke:none;stroke-width:3.55746"
         d="m 288.43336,147.89557 1.18581,2.37162 -1.18581,-2.37162 m 34.07962,-2.53227 0.30914,14.39046 c 22.05342,6.28984 46.92647,5.73516 53.36189,-7.11492 z"
         id="path287"
         sodipodi:nodetypes="ccccccc" /><path
         style="fill:#903d45;stroke:none;stroke-width:3.55746"
         d="m 458.00564,141.96646 3.55747,3.55746 -3.55747,-3.55746 m 11.85823,2.37165 1.1858,2.37162 z"
         id="path280" /><path
         style="fill:#ca695f;stroke:none;stroke-width:3.55746"
         d="m 418.87357,141.96646 3.55746,3.55746 -3.55746,-3.55746 m 13.04404,1.18581 2.37165,1.18584 z"
         id="path278" /><path
         style="fill:#ca4c3c;stroke:none;stroke-width:3.55746"
         d="m 337.05197,141.96646 3.55746,3.55746 z"
         id="path277" /><path
         style="fill:#903d45;stroke:none;stroke-width:3.55746"
         d="m 333.49451,141.96646 3.55746,3.55746 z"
         id="path276" /><path
         style="fill:#853337;stroke:none;stroke-width:3.55746"
         d="m 331.50464,139.7185 -8.99166,5.6448 51.42524,6.97109 -10.51451,-12.19092 z"
         id="path275"
         sodipodi:nodetypes="ccccc" /><path
         style="fill:#e7bda3;stroke:none;stroke-width:3.55746"
         d="m 543.38471,138.409 3.55745,3.55746 -3.55745,-3.55746 m -348.63118,3.55746 3.55746,3.55746 z"
         id="path272" /><path
         style="fill:#853337;stroke:none;stroke-width:3.55746"
         d="m 478.5183,134.01943 -56.08727,22.17687 53.36192,-7.11492 3.55746,-7.11492 z"
         id="path268"
         sodipodi:nodetypes="ccccc" /><path
         style="fill:#ca695f;stroke:none;stroke-width:3.55746"
         d="m 377.36988,140.78065 1.18581,2.37162 z"
         id="path267" /><path
         style="fill:#903d45;stroke:none;stroke-width:3.55746"
         d="m 322.35564,138.04041 0.15724,7.32289 8.99176,-5.6448 z"
         id="path266"
         sodipodi:nodetypes="cccc" /><path
         style="fill:#ca4c3c;stroke:none;stroke-width:3.55746"
         d="m 497.13771,134.85154 3.55746,3.55746 -3.55746,-3.55746 m -188.54543,3.55746 3.55746,3.55746 z"
         id="path265" /><path
         style="fill:#903d45;stroke:none;stroke-width:3.55746"
         d="m 468.67803,134.85154 3.55745,3.55746 -3.55745,-3.55746 m 17.7873,0 3.55746,3.55746 z"
         id="path264" /><path
         style="fill:#ca4c3c;stroke:none;stroke-width:3.55746"
         d="m 322.82212,134.85154 3.55747,3.55746 z"
         id="path263" /><path
         style="fill:#ca695f;stroke:none;stroke-width:3.55746"
         d="m 315.7072,134.85154 -3.55746,10.67238 -19.56603,-7.11492 23.12349,28.45965 z"
         id="path262"
         sodipodi:nodetypes="ccccc" /><path
         style="fill:#903d45;stroke:none;stroke-width:3.55746"
         d="m 305.03482,134.85154 3.55746,3.55746 z"
         id="path261" /><path
         style="fill:#e99671;stroke:none;stroke-width:3.55746"
         d="m 475.79295,131.29408 3.55746,3.55746 z"
         id="path258" /><path
         style="fill:#ca695f;stroke:none;stroke-width:3.55746"
         d="m 422.43103,131.29408 3.55746,3.55746 z"
         id="path257" /><path
         style="fill:#ca4c3c;stroke:none;stroke-width:3.55746"
         d="m 372.62658,131.29408 3.55746,3.55746 z"
         id="path256" /><path
         style="fill:#ca695f;stroke:none;stroke-width:3.55746"
         d="m 369.06911,131.29408 3.55747,3.55746 z"
         id="path255"
         sodipodi:nodetypes="ccc" /><path
         style="fill:#e99671;stroke:none;stroke-width:3.55746"
         d="m 472.23548,127.73661 3.55747,3.55747 z"
         id="path253" /><path
         style="fill:#ca695f;stroke:none;stroke-width:3.55746"
         d="m 428.36014,128.92242 2.37166,1.18585 z"
         id="path252" /><path
         style="fill:#903d45;stroke:none;stroke-width:3.55746"
         d="m 422.43103,127.73661 -3.55746,7.11493 z"
         id="path251" /><path
         style="fill:#ca695f;stroke:none;stroke-width:3.55746"
         d="m 416.50195,130.10827 1.18581,2.37161 z"
         id="path250" /><path
         style="fill:#b48996;stroke:none;stroke-width:3.55746"
         d="m 436.66087,124.17916 3.55747,3.55745 z"
         id="path246" /><path
         style="fill:#ca695f;stroke:none;stroke-width:3.55746"
         d="m 433.10342,124.17916 3.55745,3.55745 z"
         id="path245" /><path
         style="fill:#903d45;stroke:none;stroke-width:3.55746"
         d="m 418.87357,124.17916 3.55746,3.55745 -3.55746,-3.55745 m 10.67238,0 3.55747,3.55745 z"
         id="path244" /><path
         style="fill:#b48996;stroke:none;stroke-width:3.55746"
         d="m 415.31611,124.17916 3.55746,3.55745 z"
         id="path243" /><path
         style="fill:#903d45;stroke:none;stroke-width:3.55746"
         d="m 361.95419,124.17916 3.55747,3.55745 -3.55747,-3.55745 m 10.67239,0 3.55746,3.55745 z"
         id="path242" /><path
         style="fill:#903d45;stroke:none;stroke-width:3.55746"
         d="m 326.37959,124.17916 3.55746,3.55745 z"
         id="path240" /><path
         style="fill:#ca695f;stroke:none;stroke-width:3.55746"
         d="m 475.79295,149.08138 c -19.68948,2.81004 -53.36192,7.11492 -53.36192,7.11492 2.82352,22.4691 40.75623,6.4055 53.36192,0 l 3.55746,10.67238 c 17.47439,-5.79481 20.66073,-0.25613 15.72248,-18.38663 l -15.72248,-6.51559 z"
         id="path236"
         sodipodi:nodetypes="ccccccc" /><path
         style="fill:#b48996;stroke:none;stroke-width:3.55746"
         d="m 418.87357,117.06423 3.55746,3.55746 z"
         id="path227" /><path
         style="fill:#903d45;stroke:none;stroke-width:3.55746"
         d="m 337.05197,120.62169 v 3.55747 h 17.7873 l -17.7873,-3.55747 m 21.34477,-3.55746 3.55745,3.55746 -3.55745,-3.55746 m 10.67237,0 3.55747,3.55746 z"
         id="path224" /><path
         style="fill:#853337;stroke:none;stroke-width:3.55746"
         d="m 415.31614,134.85164 63.20216,-0.83221 c -13.9419,-6.01417 -52.4974,-18.2472 -63.20216,0.83221 z"
         id="path217"
         sodipodi:nodetypes="ccc" /><path
         style="fill:#853337;stroke:none;stroke-width:3.55746"
         d="m 315.39062,131.70567 64.35088,3.14587 c -5.32431,-19.56123 -48.58901,-19.24114 -64.35088,-3.14587 z"
         id="path215"
         sodipodi:nodetypes="ccc" /><path
         style="fill:#853337;stroke:none;stroke-width:3.55746"
         d="m 213.72664,112.32096 1.18585,2.37162 -1.18585,-2.37162 m 9.48658,-2.37165 3.55746,3.55746 -3.55746,-3.55746 m 90.08484,0.96365 -43.83785,16.82365 -13.68907,49.80446 42.60991,82.19218 -14.69099,60.10626 c 33.4344,-9.12621 109.0985,-31.67667 81.72277,-81.21773 -12.06478,-21.83327 -33.89388,-32.27712 -42.59071,-57.52325 -43.569,3.12139 -44.01764,-62.25244 -7.4315,-49.39286 z"
         id="path199"
         sodipodi:nodetypes="cccccccccccsccc" /><path
         style="fill:#853337;stroke:none;stroke-width:3.55746"
         d="m 475.79295,106.39185 3.55746,35.57461 c 37.78994,-13.21063 33.12255,46.52935 -7.11493,39.13207 -5.86753,30.3249 -31.45467,37.00983 -45.73642,60.52899 -27.44709,45.19985 43.15681,69.13868 74.19611,74.65452 v -35.5746 h -14.22984 l -3.55746,-35.57461 7.11492,7.11492 h 3.55746 v -21.34477 h 10.67238 c 4.5114,-45.31511 24.95659,-101.89215 -28.45968,-124.51113 z"
         id="path195" /><path
         style="fill:#e7bda3;stroke:none;stroke-width:3.55746"
         d="m 568.28693,99.276919 3.55746,3.557471 -3.55746,-3.557471 m -373.5334,3.557471 3.55746,3.55746 z"
         id="path184" /><path
         style="fill:#853337;stroke:none;stroke-width:3.55746"
         d="m 212.54083,92.161999 -10.67238,17.787311 10.67238,-17.787311 m 151.78502,1.18581 2.37165,1.18585 -2.37165,-1.18585 m 21.34477,0 2.37164,1.18585 z"
         id="path166" /><path
         style="fill:#e99671;stroke:none;stroke-width:3.55746"
         d="m 415.06698,54.113752 c -23.93093,23.299837 -41.63944,46.264358 -74.45752,50.499368 l -25.21884,27.09255 c 7.79632,-8.37554 58.59857,-12.89522 64.35088,3.14587 l -57.53777,-3.87867 0.15191,7.06754 c 11.35637,3.54355 35.55955,1.28833 44.30344,9.31162 10.36331,9.50927 1.92,14.17217 -7.93584,14.7027 -7.25078,0.39025 -25.26513,-0.4121 -35.90108,-2.30097 l -0.61839,-28.78089 -6.81315,0.7328 0.31662,35.16305 -16.52633,-21.51549 -6.5972,-6.94423 c -2.19905,41.02471 24.63381,37.25646 30.23841,42.68953 20.47063,19.84405 35.06255,53.15551 64.03433,63.13138 36.79628,12.67004 76.34127,-37.01083 85.37903,-66.68884 26.27548,6.39318 32.5972,-16.71932 31.15817,-29.35713 l -8.32076,0.29811 -15.72244,18.38674 -3.55747,-10.67238 c -12.44005,3.86796 -49.90655,23.58643 -53.36191,0 l 56.08723,-22.17698 -63.20216,0.83221 10.86153,-7.23868 52.34063,6.40647 -2.72532,-27.62748 z"
         id="path126"
         sodipodi:nodetypes="ccccccssccccccsscccccccccccc" /><path
         style="fill:#903d45;stroke:none;stroke-width:3.55746"
         d="M 347.72435,-0.33197791 C 337.27591,-6.4625779 323.32152,10.222652 315.72367,17.595312 293.61018,39.053492 278.40185,74.122149 244.55799,77.932159 v 7.11492 l -7.11493,3.55746 c -7.09653,46.772001 -17.63661,92.742941 -28.45968,138.740981 v 3.55746 l -7.11493,3.55746 7.11493,10.67239 3.55745,-14.22985 -3.55745,14.22985 v 24.90222 l 10.67237,3.55747 14.22985,21.34476 10.67239,-3.55746 c 6.54686,13.0953 13.71486,18.30175 28.45968,17.7873 l 10.67239,10.67239 16.05251,-60.10626 -43.3264,-82.19218 13.04404,-49.80446 43.83785,-16.82365 2.09256,20.79271 c 16.20467,-17.40864 42.30839,-33.339881 67.90834,-32.428751 l 10.67239,-3.55745 3.55745,-10.67239 10.67239,3.55746 7.11492,-24.902217 h 3.55746 c 10.69885,15.321337 29.40398,38.606128 49.80446,39.132068 l 7.11492,17.7873 1.49078,0.67798 -1.49078,-14.90782 c 50.9206,31.85425 31.04325,74.0658 28.45968,124.51113 h -10.67238 v 21.34477 h -3.55746 l -7.11492,-7.11492 3.55746,35.57461 h 14.22984 v 35.5746 l 14.58744,-7.47251 17.42971,-31.65956 -3.55746,-10.67238 24.90223,-17.78731 10.67238,-14.22984 7.11492,-3.55746 -3.55746,-10.67238 7.11492,3.55746 c 8.89365,-5.33619 -2.48709,-20.18781 7.11493,-17.7873 l -7.11493,-24.90223 2.2179,7.7627 4.89703,-18.43508 -17.78731,-10.67239 c -13.0816,-3.69165 -18.47376,-11.91991 -21.34476,-24.90222 -22.67551,3e-5 22.85661,-43.663001 -10.67239,-39.132071 l -14.22985,-21.34477 -35.5746,-28.459687 v -3.55746 l 7.11492,-3.55746 c -5.65487,-7.95743 -22.6722,-33.2413399 -32.01715,-24.90223 L 415.31611,-7.4468979 404.64373,-11.004358 Z"
         id="path20"
         sodipodi:nodetypes="ccccccccccccccccccccccccccccccccccccccccccccccccccccccccccccccc"
         inkscape:label="path20" /></g></g></svg>
