<?xml version="1.0" encoding="UTF-8" standalone="no"?>
<!-- Created with Inkscape (http://www.inkscape.org/) -->

<svg
   width="210mm"
   height="82mm"
   viewBox="0 0 793.70081 309.92126"
   version="1.1"
   id="svg1"
   inkscape:version="1.4.2 (ebf0e940d0, 2025-05-08)"
   sodipodi:docname="huellas.svg"
   xml:space="preserve"
   xmlns:inkscape="http://www.inkscape.org/namespaces/inkscape"
   xmlns:sodipodi="http://sodipodi.sourceforge.net/DTD/sodipodi-0.dtd"
   xmlns="http://www.w3.org/2000/svg"
   xmlns:svg="http://www.w3.org/2000/svg"><sodipodi:namedview
     id="namedview1"
     pagecolor="#ffffff"
     bordercolor="#111111"
     borderopacity="1"
     inkscape:showpageshadow="0"
     inkscape:pageopacity="0"
     inkscape:pagecheckerboard="1"
     inkscape:deskcolor="#d1d1d1"
     inkscape:document-units="mm"
     inkscape:zoom="0.52905128"
     inkscape:cx="397.88204"
     inkscape:cy="623.75806"
     inkscape:window-width="1920"
     inkscape:window-height="963"
     inkscape:window-x="0"
     inkscape:window-y="0"
     inkscape:window-maximized="1"
     inkscape:current-layer="layer1" /><defs
     id="defs1"><inkscape:path-effect
       effect="fillet_chamfer"
       id="path-effect3"
       is_visible="true"
       lpeversion="1"
       nodesatellites_param="F,0,0,1,0,7.404234,0,1 @ F,0,0,1,0,9.4515821,0,1 @ F,0,0,1,0,0,0,1"
       radius="0"
       unit="px"
       method="auto"
       mode="F"
       chamfer_steps="1"
       flexible="false"
       use_knot_distance="true"
       apply_no_radius="true"
       apply_with_radius="true"
       only_selected="false"
       hide_knots="false" /></defs><g
     inkscape:label="Layer 1"
     inkscape:groupmode="layer"
     id="layer1"><rect
       style="fill:#4a4f63;fill-opacity:1;stroke-width:0.377953;stroke-linecap:round;stroke-linejoin:round"
       id="rect1"
       width="793.70081"
       height="1122.5197"
       x="0"
       y="-500" /><path
       style="fill:none;stroke:#e0ddd1;stroke-width:8.41097;stroke-linecap:round;stroke-linejoin:round;stroke-dasharray:none;stroke-opacity:1"
       d="m 396.53118,255.38084 c 1.49279,-1.67906 6.15741,-3.5444 4.47836,-5.03719 -1.67906,-1.49279 -5.47676,7.04986 -4.47836,5.03719 17.4895,-35.25728 2.61107,-3.08027 10.13258,-14.44019 0.83204,-1.25664 0.44265,-3.04905 1.17586,-4.36582 2.02428,-3.63541 5.71765,-6.55871 7.50145,-10.46632 1.25172,-2.74207 1.16407,-5.9612 2.35172,-8.73163 5.29467,-12.35098 11.03298,-23.57851 14.5566,-36.66124 1.43983,-5.34593 5.41721,-13.43866 5.09539,-18.91854 -0.28558,-4.86273 0.0698,-9.80643 -0.83823,-14.27332 -0.30025,-1.47691 1.26422,-2.86127 1.17586,-4.36581 -0.0417,-0.70925 -0.92178,-1.151 -1.06333,-1.84723 -0.95554,-4.70039 -1.61008,-11.15735 -1.90155,-16.12054 -0.2688,-4.57702 -5.3548,-28.20939 -7.49757,-30.11445 -0.89494,-0.79565 -4.55869,-5.98345 -6.49246,-4.87031 -2.59196,1.492 -4.2118,16.30391 -2.5768,21.15773 1.03744,3.07984 0.36097,6.14661 0.55882,9.51554 0.23796,4.05166 1.83069,8.05356 3.07743,11.75472 1.08287,3.21472 -0.1321,4.84556 0.95077,8.06027 1.17313,3.48264 4.32038,8.53143 4.5327,12.14668 0.0589,1.00303 -0.98407,1.92593 -0.78391,2.91055 0.67136,3.30249 2.32261,2.96682 3.18995,5.54167 0.87761,2.60532 0.46925,5.69158 0.95079,8.06027 0.73038,3.59283 3.74192,7.18031 4.92464,10.69141 3.43513,1.48174 -0.22773,3.25223 0.27941,4.75777 1.45618,4.32292 6.30604,17.95494 6.54679,22.05417 0.1828,3.11278 -1.08195,5.96506 -0.89645,9.12359 0.44317,7.54625 1.75709,10.86174 -0.33762,18.63913 -0.30678,1.13905 -0.56511,5.81069 -2.63113,3.97387 -1.56758,-1.39366 -3.48491,-14.56571 -3.35683,-16.51249 0.19787,-3.00777 2.15383,-5.72388 2.35172,-8.73164 0.0737,-1.12092 -0.74512,-2.18158 -0.67137,-3.3025 0.24372,-3.70465 3.35383,-7.92669 3.13563,-11.64218 -0.36586,-6.22983 1.03291,-14.34913 5.09539,-18.91855 0.6676,-0.75089 -0.0869,-2.40929 0.78391,-2.91054 0.43539,-0.25063 1.01987,0.64258 1.45527,0.39196 2.1551,-1.24054 1.6519,-7.09916 3.80699,-8.33969 0.92362,-0.53166 2.37889,-0.13971 3.3025,-0.67137 3.82198,-2.20005 -4.63292,-1.12156 2.23918,-2.51859 9.15886,-1.86191 12.76211,18.79461 13.82315,24.01394 0.54546,2.68314 4.11324,6.70006 4.25328,7.38891 0.1982,0.97499 0.99,5.99223 1.34273,6.60499 0.48886,0.84926 4.04686,3.5979 5.03718,4.47836 0.5152,0.45804 6.75895,2.2576 7.27637,1.95977 0.43539,-0.25063 -0.0434,-1.20465 0.39195,-1.45528 0.73234,-0.42155 8.64475,-1.28721 9.9075,-2.0141 1.05848,-0.60929 6.10421,-7.49273 7.10949,-9.01104 0.55469,-0.83776 0.11631,-2.15966 0.78391,-2.91055 0.47206,-0.53097 1.45499,-0.47092 1.84722,-1.06331 1.43167,-2.16228 6.41054,-20.91281 6.27126,-23.28437 -0.0417,-0.70925 -0.92179,-1.151 -1.06332,-1.84723 -0.45622,-2.24414 2.83864,-8.60049 -0.55883,-9.51554 -1.75563,-0.47285 -1.76809,16.87828 -1.79289,18.24718 -0.0509,2.81162 -0.47572,11.99067 0.83823,14.27331 2.20005,3.82198 1.12156,-4.63293 2.5186,2.23918 0.10008,0.49231 -0.64258,1.01988 -0.39196,1.45528 0.25063,0.43539 1.20464,-0.0435 1.45528,0.39195 0.25063,0.4354 -0.64259,1.01987 -0.39196,1.45527 0.94787,1.64665 4.09174,1.83405 5.42913,3.02309 0.79129,0.7035 3.51613,4.12427 5.42915,3.02309 0.4354,-0.25064 -0.0435,-1.20465 0.39196,-1.45528 0.87079,-0.50125 1.92592,0.98407 2.91054,0.78391 2.62097,-0.53282 4.71463,-3.94354 5.93364,-4.64523 0.43539,-0.25064 1.01987,0.64257 1.45526,0.39195 0.87079,-0.50125 0.11631,-2.15965 0.7839,-2.91054 2.32589,-2.61611 4.58262,-4.33134 6.71755,-7.55578 1.28731,-1.94426 6.41722,-20.79881 6.27125,-23.28436 -0.0417,-0.70925 -1.02167,-1.13798 -1.06331,-1.84724 -0.0838,-1.42732 1.25968,-2.93848 1.17585,-4.36581 -0.18024,-3.06908 -0.40261,-5.3638 -0.95078,-8.06026 -0.42321,-2.08182 0.95475,-5.45354 0.50451,-7.66833 -0.70854,-3.48531 -1.41812,-0.20915 -2.12665,-3.69445 -0.20016,-0.98462 1.28516,-2.03976 0.78391,-2.91055 -0.25063,-0.43539 -1.07982,-0.0582 -1.45527,-0.39195 -1.06194,-0.94412 -1.06471,-2.75033 -2.12664,-3.69446 -2.08807,-1.85641 -2.5052,0.21241 -3.3025,0.67137 -0.4354,0.25063 -1.01988,-0.64259 -1.45528,-0.39195 -4.38271,2.52282 0.96141,12.74565 4.14074,13.60195 1.79828,0.48434 2.09463,3.01316 3.97387,2.63113 4.6147,-0.93813 10.34853,-4.53899 12.93058,-7.44324 4.69913,-5.28551 12.8052,-41.55675 13.32642,-49.47927 0.41635,-6.32861 -0.0674,-12.48269 0.33762,-18.63913 0.1649,-2.50647 1.91427,-4.76489 1.95976,-7.27637 0.085,-4.69189 -2.00292,-9.94901 -0.83824,-14.27332 1.14036,-4.234 -0.98086,-8.57262 -1.23019,-12.81804 -0.10552,-1.79696 1.92353,-4.07131 1.56782,-5.82109 -0.0959,-0.47187 -1.16337,-4.99584 -1.73469,-5.14972 -0.0837,-0.0226 0.92145,7.56076 0.95078,8.06026 0.0589,1.00303 -0.71795,1.90797 -0.78391,2.91055 -0.29867,4.53997 2.08841,5.8053 2.0141,9.9075 -0.0182,1.0046 -0.7657,1.90596 -0.78391,2.91054 -0.0596,3.28927 2.07369,6.61824 2.0141,9.90751 -0.19317,10.66435 3.96775,21.6916 5.25838,32.63303 0.838,7.10409 0.68544,17.74796 2.85235,24.18081 1.38074,4.09898 3.14562,8.02893 4.53269,12.14668 0.92237,2.73822 2.88291,4.36682 4.64522,5.93363 1.05168,0.935 1.57871,5.01106 1.7347,5.14972 6.22445,5.53392 0.55109,-3.31499 3.97386,2.63113 0.93439,1.62325 10.57302,6.21038 12.7055,4.98287 0.4354,-0.25064 -0.0435,-1.20465 0.39195,-1.45529 1.14499,-0.65908 5.71828,-0.83231 6.60499,-1.34273 1.77965,-1.02441 8.36912,-10.52181 9.74063,-12.98491 1.22201,-2.19459 0.84353,-5.02612 1.95977,-7.27637 1.21505,-2.44943 3.56255,-4.51731 4.87032,-6.49245 2.80379,-4.23463 3.34154,-12.40673 4.70344,-17.46327 0.89803,-3.33429 1.62086,-13.61101 -0.83824,-14.27332 -4.56996,-1.23085 -1.85017,0.20448 -4.08641,3.58191 -0.39222,0.5924 -1.23149,0.70889 -1.84723,1.06333 -0.74639,0.83953 -1.69268,1.53713 -2.23918,2.51859 -3.73176,6.70186 -6.32631,14.21758 -5.8793,21.82908 0.13109,2.23205 -2.40351,5.09352 -1.95977,7.27637 0.96866,4.76492 5.29801,14.63083 9.17793,18.08031 1.50042,1.33397 5.53221,3.20216 6.49246,4.87031 0.25062,0.4354 -0.64259,1.01988 -0.39196,1.45528 1.40163,2.43495 11.77281,2.42127 13.48941,2.0723 3.06933,-0.62397 5.69365,-3.22086 8.84417,-3.86132 0.49231,-0.10008 1.01988,0.64259 1.45528,0.39195 0.87079,-0.50125 0.11632,-2.15965 0.78391,-2.91055 0.94412,-1.06192 2.75032,-1.0647 3.69445,-2.12663 1.20844,-1.35923 3.81853,-11.66626 3.52758,-13.09746 -0.50652,-2.49159 -1.16898,-3.6463 -1.34273,-6.60499 -0.0589,-1.00304 0.98406,-1.92593 0.78391,-2.91055 -0.14155,-0.69623 -1.02168,-1.13798 -1.06333,-1.84723 -0.0589,-1.00302 0.84282,-1.90752 0.78391,-2.91054 -0.33898,-5.77214 -3.96005,-12.71317 -4.81209,-16.90445 -1.39705,-6.8721 -0.31857,1.5828 -2.5186,-2.23918 -0.50126,-0.87079 1.28516,-2.03975 0.7839,-2.91054 -0.25063,-0.4354 -1.32462,-0.87705 -1.45527,-0.39195 -0.18477,0.68602 0.92178,1.151 1.06332,1.84721 1.31353,6.46135 3.10657,3.26065 5.70854,7.78087 0.56042,0.97356 0.11096,2.32892 0.67138,3.3025 0.25062,0.43539 1.07982,0.0581 1.45527,0.39195 1.06192,0.94412 1.06471,2.75033 2.12664,3.69445 5.02838,4.47054 10.57645,9.54245 18.13463,8.00593 1.47693,-0.30024 2.86128,1.26422 4.36582,1.17586 1.4185,-0.0833 2.27597,-2.04333 3.69445,-2.12663 1.00303,-0.0589 1.90752,0.84282 2.91055,0.78391 1.57931,-0.0928 3.57041,-1.64193 5.14972,-1.73469 1.00303,-0.0589 1.90752,0.84281 2.91055,0.78391 2.52083,-0.14804 4.89427,-3.74614 7.38891,-4.25328 1.00076,-0.20343 3.9837,0.16617 4.75778,-0.27941 0.4354,-0.25063 0.0581,-1.07982 0.39195,-1.45528 0.45554,-0.51237 12.07208,-4.55277 12.14667,-4.53268"
       id="path1" /></g></svg>
