<?xml version="1.0" encoding="UTF-8" standalone="no"?>
<!-- Created with Inkscape (http://www.inkscape.org/) -->

<svg
   width="210mm"
   height="297mm"
   viewBox="0 0 793.70081 1122.5197"
   version="1.1"
   id="svg1"
   inkscape:version="1.4 (e7c3feb100, 2024-10-09)"
   sodipodi:docname="carta-disculpa.svg"
   xml:space="preserve"
   xmlns:inkscape="http://www.inkscape.org/namespaces/inkscape"
   xmlns:sodipodi="http://sodipodi.sourceforge.net/DTD/sodipodi-0.dtd"
   xmlns="http://www.w3.org/2000/svg"
   xmlns:svg="http://www.w3.org/2000/svg"><sodipodi:namedview
     id="namedview1"
     pagecolor="#ffffff"
     bordercolor="#111111"
     borderopacity="1"
     inkscape:showpageshadow="0"
     inkscape:pageopacity="0"
     inkscape:pagecheckerboard="1"
     inkscape:deskcolor="#d1d1d1"
     inkscape:document-units="mm"
     inkscape:zoom="1.9003511"
     inkscape:cx="382.82399"
     inkscape:cy="419.39618"
     inkscape:window-width="1536"
     inkscape:window-height="772"
     inkscape:window-x="0"
     inkscape:window-y="0"
     inkscape:window-maximized="1"
     inkscape:current-layer="layer1" /><defs
     id="defs1" /><g
     inkscape:label="Layer 1"
     inkscape:groupmode="layer"
     id="layer1"><rect
       style="fill:#d8e8ee;stroke-width:7.5;stroke-linecap:round;stroke-linejoin:round;fill-opacity:1"
       id="rect1"
       width="793.70081"
       height="1122.5197"
       x="0"
       y="0" /><path
       style="fill:#eeeeee;fill-opacity:1;stroke:#346578;stroke-width:4.19658;stroke-linecap:round;stroke-linejoin:round;stroke-opacity:1"
       d="m 259.69876,301.85673 c 0,0 208.23011,-29.10958 284.58116,5.59544 0,0 8.09783,131.87907 -10e-6,163.11358 0,0 -172.36826,27.57529 -292.67899,0.9681 0,0 -17.35252,-106.05125 8.09784,-169.67712 z"
       id="path1"
       sodipodi:nodetypes="ccccc" /><path
       style="fill:none;fill-opacity:1;stroke:#346578;stroke-width:4.19658;stroke-linecap:round;stroke-linejoin:round;stroke-opacity:1"
       d="m 259.69876,301.85673 c 0,0 124.93807,96.98531 284.58115,168.70902"
       id="path2" /><path
       style="fill:none;fill-opacity:1;stroke:#346578;stroke-width:4.19658;stroke-linecap:round;stroke-linejoin:round;stroke-opacity:1"
       d="m 544.27992,307.45217 c 0,0 -127.25175,93.32607 -292.679,164.08168"
       id="path3" /><g
       id="g5"
       transform="matrix(0.75607648,0,0,0.75607648,34.723012,-169.15479)"><path
         style="fill:#b22e2e;fill-opacity:1;stroke:#783434;stroke-width:3.02362;stroke-linecap:round;stroke-linejoin:round;stroke-dasharray:none;stroke-opacity:1"
         d="m 485.9841,709.65093 c -7.53213,-9.68087 -14.19,-11.63597 -19.81179,-10.87317 -13.95643,1.89372 -16.8695,16.38337 -16.8695,16.38337 -5.48972,27.48431 34.59932,74.63359 34.59932,74.63359 0,0 26.51442,-35.29401 34.77365,-50.33736 0,0 17.75457,-30.63273 -5.11622,-39.14172 0,0 -13.3702,-6.87498 -27.57546,9.33529 z"
         id="path4"
         sodipodi:nodetypes="csccccc" /><path
         style="fill:none;fill-opacity:1;stroke:#eeeeee;stroke-width:4.99886949;stroke-linecap:round;stroke-linejoin:round;stroke-dasharray:none;stroke-opacity:1"
         d="m 484.13904,699.66303 7.03838,18.29977 -10.55756,10.90947 11.61331,13.72482 -10.20564,23.57855 7.74221,9.85372 -9.5018,18.65168"
         id="path5"
         sodipodi:nodetypes="ccccccc" /></g></g></svg>
