<?xml version="1.0" encoding="UTF-8" standalone="no"?>
<!-- Uploaded to: SVG Repo, www.svgrepo.com, Generator: SVG Repo Mixer Tools -->

<svg
   width="780"
   height="480"
   viewBox="0 0 23.4 14.4"
   fill="none"
   version="1.1"
   id="svg1"
   sodipodi:docname="colores.svg"
   xml:space="preserve"
   inkscape:export-filename="leggiamo/public/colores.svg"
   inkscape:export-xdpi="96"
   inkscape:export-ydpi="96"
   inkscape:version="1.4.2 (ebf0e940d0, 2025-05-08)"
   xmlns:inkscape="http://www.inkscape.org/namespaces/inkscape"
   xmlns:sodipodi="http://sodipodi.sourceforge.net/DTD/sodipodi-0.dtd"
   xmlns="http://www.w3.org/2000/svg"
   xmlns:svg="http://www.w3.org/2000/svg"><defs
     id="defs1" /><sodipodi:namedview
     id="namedview1"
     pagecolor="#cfcfcf"
     bordercolor="#eeeeee"
     borderopacity="1"
     inkscape:showpageshadow="0"
     inkscape:pageopacity="0"
     inkscape:pagecheckerboard="true"
     inkscape:deskcolor="#505050"
     showguides="false"
     inkscape:zoom="0.55128206"
     inkscape:cx="53.511627"
     inkscape:cy="313.81395"
     inkscape:window-width="1920"
     inkscape:window-height="963"
     inkscape:window-x="0"
     inkscape:window-y="0"
     inkscape:window-maximized="1"
     inkscape:current-layer="svg1"><inkscape:page
       x="0"
       y="0"
       width="23.4"
       height="14.4"
       id="page2"
       margin="0"
       bleed="0" /></sodipodi:namedview><style
     type="text/css"
     id="style1">
	.st0{fill:#000000;}
</style><style
     type="text/css"
     id="style1-6">
	.puchipuchi_een{fill:#111918;}
</style><path
     class="st0"
     d="M 8.3683831,5.9695772 C 8.1217269,6.3103967 7.9734239,6.7243414 7.9734239,7.1760004 c 0,1.1409183 0.9241309,2.0657532 2.0652751,2.0657532 0.684421,0 1.285087,-0.3350531 1.661062,-0.8473223 0.37648,0.5122692 0.977343,0.8473223 1.660838,0.8473223 1.142098,0 2.065527,-0.9248349 2.065527,-2.0657532 0,-0.4516313 -0.148331,-0.865576 -0.39451,-1.2064232 0.823472,-0.2716311 1.420678,-1.0372766 1.420678,-1.9514512 0,-1.1409204 -0.923907,-2.065303 -2.065303,-2.065303 -0.218644,0 -0.425728,0.042795 -0.621957,0.104576 C 13.759701,0.92019276 12.838879,0 11.699761,0 10.5614,0 9.6393517,0.92019276 9.6349357,2.0574268 9.4387328,1.9956667 9.2316521,1.9528507 9.0132327,1.9528507 c -1.14165,0 -2.065527,0.9243549 -2.065527,2.065303 0,0.9141469 0.5972058,1.6797924 1.4206774,1.9514235 z M 11.699761,3.9831649 c 0.593972,0 1.075472,0.48105 1.075472,1.07477 0,0.5934639 -0.4815,1.0745139 -1.075472,1.0745139 -0.593466,0 -1.075444,-0.48105 -1.075444,-1.0745139 2.8e-5,-0.59372 0.482006,-1.07477 1.075444,-1.07477 z"
     id="path591"
     style="fill:#727d5f;fill-opacity:1;stroke:none;stroke-width:0.32;stroke-dasharray:none;stroke-opacity:1" /><path
     class="st0"
     d="m 15.017338,10.025202 c -1.351489,0.0094 -2.548179,0.657816 -3.307781,1.656675 -0.772564,-0.988707 -1.978058,-1.62104 -3.3297732,-1.612266 -0.2978157,0.0021 -0.5879536,0.03541 -0.867909,0.09673 0,0.02408 -0.00141,0.04791 -0.00115,0.07245 0.015573,2.313307 1.9033317,4.176618 4.2171192,4.161119 2.313815,-0.01557 4.17687,-1.903556 4.161373,-4.217117 -2.52e-4,-0.0243 -0.0019,-0.04838 -0.0026,-0.07238 -0.280463,-0.05743 -0.571557,-0.08704 -0.869345,-0.08518 z"
     id="path592"
     style="fill:#727d5f;fill-opacity:1;stroke:none;stroke-width:0.32;stroke-dasharray:none;stroke-opacity:1" /></svg>
