<?xml version="1.0" encoding="UTF-8" standalone="no"?>
<!-- Uploaded to: SVG Repo, www.svgrepo.com, Generator: SVG Repo Mixer Tools -->

<svg
   width="780"
   height="645.64697"
   viewBox="0 0 23.4 19.369409"
   fill="none"
   version="1.1"
   id="svg1"
   sodipodi:docname="folder-minus-fill-svgrepo-com.svg"
   xml:space="preserve"
   inkscape:export-filename="leggiamo/public/colores.svg"
   inkscape:export-xdpi="96"
   inkscape:export-ydpi="96"
   xmlns:inkscape="http://www.inkscape.org/namespaces/inkscape"
   xmlns:sodipodi="http://sodipodi.sourceforge.net/DTD/sodipodi-0.dtd"
   xmlns:xlink="http://www.w3.org/1999/xlink"
   xmlns="http://www.w3.org/2000/svg"
   xmlns:svg="http://www.w3.org/2000/svg"><defs
     id="defs1"><linearGradient
       id="linearGradient620"
       inkscape:collect="always"><stop
         style="stop-color:#454d5f;stop-opacity:1;"
         offset="0"
         id="stop619" /><stop
         style="stop-color:#39404f;stop-opacity:1;"
         offset="1"
         id="stop620" /></linearGradient><linearGradient
       id="linearGradient618"
       inkscape:collect="always"><stop
         style="stop-color:#454d5f;stop-opacity:1;"
         offset="0"
         id="stop617" /><stop
         style="stop-color:#39404f;stop-opacity:1;"
         offset="1"
         id="stop618" /></linearGradient><linearGradient
       id="linearGradient612"
       inkscape:collect="always"><stop
         style="stop-color:#454d5f;stop-opacity:1;"
         offset="0"
         id="stop611" /><stop
         style="stop-color:#39404f;stop-opacity:1;"
         offset="1"
         id="stop612" /></linearGradient><linearGradient
       id="linearGradient610"
       inkscape:collect="always"><stop
         style="stop-color:#57637a;stop-opacity:1;"
         offset="0"
         id="stop609" /><stop
         style="stop-color:#4c566b;stop-opacity:1;"
         offset="1"
         id="stop610" /></linearGradient><linearGradient
       inkscape:collect="always"
       xlink:href="#linearGradient618"
       id="linearGradient602"
       gradientUnits="userSpaceOnUse"
       x1="87.028999"
       y1="0"
       x2="404.48242"
       y2="512.00043"
       gradientTransform="matrix(0.01318358,0,0,0.01318358,8.32501,6.8678236)" /><linearGradient
       inkscape:collect="always"
       xlink:href="#linearGradient620"
       id="linearGradient603"
       gradientUnits="userSpaceOnUse"
       x1="87.028999"
       y1="0"
       x2="404.48242"
       y2="512.00043"
       gradientTransform="matrix(0.01318358,0,0,0.01318358,8.3312111,6.8678236)" /><linearGradient
       inkscape:collect="always"
       xlink:href="#linearGradient610"
       id="linearGradient605"
       gradientUnits="userSpaceOnUse"
       x1="0.29999998"
       y1="22.950001"
       x2="23.700001"
       y2="42.319408"
       gradientTransform="translate(-0.3,-22.949999)" /><linearGradient
       inkscape:collect="always"
       xlink:href="#linearGradient612"
       id="linearGradient606"
       gradientUnits="userSpaceOnUse"
       x1="0.29999998"
       y1="22.950001"
       x2="23.700001"
       y2="42.319408"
       gradientTransform="translate(-0.3,-22.949999)" /></defs><sodipodi:namedview
     id="namedview1"
     pagecolor="#cfcfcf"
     bordercolor="#eeeeee"
     borderopacity="1"
     inkscape:showpageshadow="0"
     inkscape:pageopacity="0"
     inkscape:pagecheckerboard="true"
     inkscape:deskcolor="#505050"
     showguides="false"><inkscape:page
       x="0"
       y="0"
       width="23.4"
       height="19.36941"
       id="page2"
       margin="0"
       bleed="0" /></sodipodi:namedview><style
     type="text/css"
     id="style1">
	.st0{fill:#000000;}
</style><style
     type="text/css"
     id="style1-6">
	.puchipuchi_een{fill:#111918;}
</style><path
     fill-rule="evenodd"
     clip-rule="evenodd"
     d="m 20.76885,2.6311016 c 1.113092,0 2.015355,0.902291 2.015355,2.015317 V 16.738263 c 0,1.112977 -0.902263,2.015351 -2.015355,2.015351 H 2.631101 c -1.113027,0 -2.01530599,-0.902374 -2.01530599,-2.015351 V 2.6311016 c 0,-1.113027 0.90227899,-2.01530606 2.01530599,-2.01530606 h 6.045924 c 1.128558,0 1.846935,0.47909706 2.568521,1.38940606 0.01977,0.02511 0.06826,0.08747 0.121922,0.156645 0.07598,0.09794 0.16306,0.210131 0.193978,0.248396 0.03112,0.03874 0.05754,0.07077 0.07931,0.09724 0.08868,0.107787 0.101361,0.123416 0.06111,0.123625 z"
     fill="#000000"
     id="path590"
     sodipodi:nodetypes="ssssssssscccccs"
     style="fill:url(#linearGradient605);fill-opacity:1;stroke:url(#linearGradient606);stroke-width:1.23159;stroke-linejoin:round;stroke-dasharray:none"
     inkscape:export-filename="leggiamo/public/colores.svg"
     inkscape:export-xdpi="96"
     inkscape:export-ydpi="96" /><path
     class="st0"
     d="m 10.138306,9.6660646 c -0.11562,0.159759 -0.185137,0.3537954 -0.185137,0.5655104 0,0.534805 0.433186,0.968321 0.968097,0.968321 0.320822,0 0.602384,-0.157056 0.778622,-0.397182 0.176475,0.240126 0.458129,0.397182 0.778517,0.397182 0.535358,0 0.968215,-0.433516 0.968215,-0.968321 0,-0.211702 -0.06953,-0.4057384 -0.184926,-0.5655104 0.386002,-0.127327 0.665942,-0.486223 0.665942,-0.914742 0,-0.534806 -0.433081,-0.96811 -0.96811,-0.96811 -0.102489,0 -0.19956,0.02006 -0.291542,0.04902 -0.0025,-0.533065 -0.434135,-0.964405 -0.968096,-0.964405 -0.533606,0 -0.965816,0.43134 -0.967886,0.964418 -0.09197,-0.02895 -0.189039,-0.04902 -0.291423,-0.04902 -0.535148,0 -0.968215,0.433291 -0.968215,0.96811 0,0.428506 0.27994,0.787402 0.665942,0.914729 z m 1.561582,-0.93113 c 0.278424,0 0.504127,0.225492 0.504127,0.503798 0,0.278186 -0.225703,0.503678 -0.504127,0.503678 -0.278187,0 -0.504114,-0.225492 -0.504114,-0.503678 1.3e-5,-0.278306 0.22594,-0.503798 0.504114,-0.503798 z"
     id="path591"
     style="fill:url(#linearGradient602);fill-opacity:1;stroke:none;stroke-width:0.15;stroke-dasharray:none;stroke-opacity:1" /><path
     class="st0"
     d="m 13.255001,11.567137 c -0.63351,0.0044 -1.194458,0.308351 -1.550521,0.776566 -0.362139,-0.463456 -0.927214,-0.759862 -1.56083,-0.755749 -0.139601,9.76e-4 -0.275603,0.0166 -0.406832,0.04534 0,0.01129 -6.59e-4,0.02246 -5.41e-4,0.03396 0.0073,1.084362 0.892186,1.957788 1.976773,1.950523 1.0846,-0.0073 1.957906,-0.892291 1.950642,-1.976772 -1.18e-4,-0.01139 -8.7e-4,-0.02268 -0.0012,-0.03393 -0.131467,-0.02692 -0.267917,-0.0408 -0.407505,-0.03993 z"
     id="path592"
     style="fill:url(#linearGradient603);fill-opacity:1;stroke:none;stroke-width:0.15;stroke-dasharray:none;stroke-opacity:1" /></svg>
