<?xml version="1.0" encoding="UTF-8" standalone="no"?>
<!-- Created with Inkscape (http://www.inkscape.org/) -->

<svg
   width="210mm"
   height="297mm"
   viewBox="0 0 793.70081 1122.5197"
   version="1.1"
   id="svg1"
   inkscape:version="1.4 (e7c3feb100, 2024-10-09)"
   sodipodi:docname="huellas.svg"
   xml:space="preserve"
   xmlns:inkscape="http://www.inkscape.org/namespaces/inkscape"
   xmlns:sodipodi="http://sodipodi.sourceforge.net/DTD/sodipodi-0.dtd"
   xmlns="http://www.w3.org/2000/svg"
   xmlns:svg="http://www.w3.org/2000/svg"><sodipodi:namedview
     id="namedview1"
     pagecolor="#ffffff"
     bordercolor="#111111"
     borderopacity="1"
     inkscape:showpageshadow="0"
     inkscape:pageopacity="0"
     inkscape:pagecheckerboard="1"
     inkscape:deskcolor="#d1d1d1"
     inkscape:document-units="mm"
     inkscape:zoom="0.52905128"
     inkscape:cx="396.93695"
     inkscape:cy="774.02705"
     inkscape:window-width="1534"
     inkscape:window-height="803"
     inkscape:window-x="0"
     inkscape:window-y="0"
     inkscape:window-maximized="1"
     inkscape:current-layer="layer1" /><defs
     id="defs1"><inkscape:path-effect
       effect="fillet_chamfer"
       id="path-effect3"
       is_visible="true"
       lpeversion="1"
       nodesatellites_param="F,0,0,1,0,7.404234,0,1 @ F,0,0,1,0,9.4515821,0,1 @ F,0,0,1,0,0,0,1"
       radius="0"
       unit="px"
       method="auto"
       mode="F"
       chamfer_steps="1"
       flexible="false"
       use_knot_distance="true"
       apply_no_radius="true"
       apply_with_radius="true"
       only_selected="false"
       hide_knots="false" /></defs><g
     inkscape:label="Layer 1"
     inkscape:groupmode="layer"
     id="layer1"><rect
       style="fill:#4a4f63;stroke-width:0.377953;stroke-linecap:round;stroke-linejoin:round;fill-opacity:1"
       id="rect1"
       width="793.70081"
       height="1122.5197"
       x="0"
       y="0" /><path
       style="fill:none;stroke:#e0ddd1;stroke-width:8.41097;stroke-linecap:round;stroke-linejoin:round;stroke-dasharray:none;stroke-opacity:1"
       d="m 413.36066,891.34173 c 1.00475,-2.00951 5.02376,-5.02377 3.01426,-6.02853 -2.00951,-1.00476 -3.45488,8.2316 -3.01426,6.02853 7.71849,-38.59253 1.72015,-3.65333 6.02852,-16.57845 0.4766,-1.42979 -0.36553,-3.05926 0,-4.5214 1.00919,-4.03676 3.81522,-7.81999 4.5214,-12.05705 0.49554,-2.97325 -0.42628,-6.05882 0,-9.04279 1.90042,-13.30295 4.52139,-25.63649 4.52139,-39.18543 0,-5.53643 1.73588,-14.38508 0,-19.59271 -1.54038,-4.62114 -2.48288,-9.48716 -4.52139,-13.56419 -0.67401,-1.34801 0.4766,-3.0916 0,-4.52139 -0.22467,-0.67401 -1.1894,-0.87167 -1.50714,-1.50713 -2.14507,-4.29015 -4.45632,-10.35471 -6.02852,-15.07132 -1.44988,-4.34962 -12.50684,-25.84613 -15.07132,-27.12838 -1.07107,-0.53553 -5.95792,-4.592 -7.53566,-3.01426 -2.11476,2.11475 0.17321,16.83826 3.01426,21.09985 1.80271,2.70406 1.94708,5.84124 3.01426,9.04279 1.28347,3.85036 3.86215,7.30035 6.02854,10.54992 1.88165,2.82248 1.13261,4.71318 3.01426,7.53566 2.03847,3.05771 6.39045,7.11429 7.53566,10.54992 0.31773,0.9532 -0.44934,2.11559 0,3.01427 1.50713,3.01426 3.01426,2.2607 4.52139,4.52139 1.52496,2.28744 1.93329,5.3737 3.01427,7.53566 1.63962,3.27925 5.48052,5.96009 7.53566,9.04279 3.70228,0.5374 0.6259,3.19955 1.50713,4.5214 2.53032,3.79547 10.75852,15.69714 12.05705,19.59271 0.98604,2.95813 0.50659,6.04118 1.50713,9.04279 2.39045,7.17134 4.5214,10.03104 4.5214,18.08558 0,1.17964 0.9655,5.75771 -1.50713,4.5214 -1.87608,-0.93804 -7.15304,-13.15821 -7.53566,-15.07132 -0.59115,-2.95573 0.59114,-6.08706 0,-9.04279 -0.22031,-1.10153 -1.28683,-1.91273 -1.50713,-3.01427 -0.72812,-3.64055 1.17696,-8.52615 0,-12.05705 -1.97344,-5.92032 -2.73435,-14.12401 0,-19.59271 0.44934,-0.89868 -0.71047,-2.3038 0,-3.01426 0.35523,-0.35524 1.15189,0.35523 1.50713,0 1.75832,-1.75832 -0.25119,-7.28448 1.50713,-9.04279 0.75357,-0.75357 2.2607,-0.75357 3.01426,-1.50714 3.11831,-3.11831 -4.76518,0.1219 1.50713,-3.01426 8.3595,-4.17975 17.21082,14.82892 19.59272,19.59271 1.22448,2.44896 5.71416,5.39981 6.02853,6.02853 0.44494,0.8899 2.51431,5.52858 3.01426,6.02853 0.6929,0.6929 4.8433,2.42165 6.02852,3.01426 0.61659,0.3083 7.11351,0.42215 7.53566,0 0.35524,-0.35523 -0.35523,-1.1519 0,-1.50713 0.59751,-0.59751 8.01253,-3.49113 9.0428,-4.5214 0.8636,-0.8636 3.94556,-8.82241 4.52139,-10.54992 0.31773,-0.95319 -0.44934,-2.11559 0,-3.01426 0.31773,-0.63547 1.28246,-0.83312 1.50713,-1.50713 0.82007,-2.4602 0.75125,-21.86038 0,-24.11411 -0.22467,-0.67401 -1.1894,-0.87167 -1.50713,-1.50714 -1.02414,-2.04827 0.50427,-9.04278 -3.01427,-9.04278 -1.81819,0 2.68221,16.75733 3.01427,18.08558 0.68203,2.72812 2.65901,11.7018 4.52139,13.56418 3.11831,3.11831 -0.1219,-4.76519 3.01427,1.50713 0.22467,0.44934 -0.35523,1.1519 0,1.50714 0.35523,0.35523 1.15189,-0.35524 1.50713,0 0.35524,0.35523 -0.35524,1.15189 0,1.50713 1.34349,1.34348 4.42792,0.70682 6.02852,1.50713 0.94702,0.47351 4.46772,3.06794 6.02854,1.50713 0.35523,-0.35524 -0.35524,-1.15189 0,-1.50713 0.71047,-0.71047 2.11558,0.44934 3.01426,0 2.39222,-1.19611 3.52682,-5.03396 4.5214,-6.02853 0.35523,-0.35524 1.15189,0.35523 1.50712,0 0.71047,-0.71046 -0.44934,-2.11559 0,-3.01426 1.5655,-3.13097 3.2985,-5.37408 4.5214,-9.04279 0.73738,-2.21215 0.78736,-21.75204 0,-24.11411 -0.22467,-0.67401 -1.28246,-0.83312 -1.50713,-1.50714 -0.45214,-1.35641 0.45214,-3.16497 0,-4.52139 -0.9722,-2.9166 -1.7837,-5.07453 -3.01427,-7.53565 -0.95005,-1.90012 -0.49638,-5.51418 -1.50712,-7.53567 -1.59057,-3.18112 -1.42371,0.16685 -3.01427,-3.01426 -0.44934,-0.89869 0.71047,-2.3038 0,-3.01427 -0.35523,-0.35523 -1.05779,0.22467 -1.50713,0 -1.27093,-0.63546 -1.74334,-2.3788 -3.01426,-3.01427 -2.49901,-1.2495 -2.36376,0.85662 -3.01427,1.50714 -0.35523,0.35524 -1.1519,-0.35524 -1.50713,0 -3.57581,3.57581 4.24303,12.05706 7.53566,12.05706 1.86236,0 2.80617,2.36474 4.5214,1.50712 4.21193,-2.10597 8.81201,-7.0741 10.54992,-10.54992 3.16285,-6.32572 1.55709,-43.45701 0,-51.24248 -1.24383,-6.21913 -3.31141,-12.03564 -4.5214,-18.08558 -0.49262,-2.46311 0.60922,-5.09877 0,-7.53566 -1.13814,-4.55255 -4.5214,-9.08578 -4.5214,-13.56419 0,-4.38488 -3.17656,-8.02256 -4.52139,-12.05705 -0.56922,-1.70769 0.79853,-4.43147 0,-6.02853 -0.21535,-0.43069 -2.42259,-4.52139 -3.01427,-4.52139 -0.0867,0 2.85604,7.06096 3.01427,7.53565 0.31773,0.9532 -0.19705,2.02903 0,3.01427 0.89229,4.46143 3.5263,5.06242 4.52139,9.04279 0.2437,0.97476 -0.24368,2.03951 0,3.01426 0.79789,3.19158 3.72351,5.85122 4.5214,9.0428 2.58691,10.34764 9.47247,19.91334 13.56418,30.14263 2.65669,6.64172 5.27749,16.95901 9.0428,22.60698 2.39923,3.59885 5.12543,6.93459 7.53566,10.54992 1.60275,2.40413 3.91937,3.46682 6.02852,4.5214 1.25865,0.62932 2.82759,4.42806 3.01427,4.52139 7.44946,3.72473 -0.32999,-3.34425 4.52139,1.50713 1.32439,1.32439 11.82432,3.247 13.56419,1.50714 0.35524,-0.35524 -0.35524,-1.1519 0,-1.50714 0.93418,-0.93418 5.30506,-2.2908 6.02852,-3.01426 1.45199,-1.45199 5.34478,-12.33629 6.02853,-15.07132 0.60922,-2.43688 -0.49262,-5.07255 0,-7.53566 0.53623,-2.68114 2.26517,-5.28838 3.01427,-7.53566 1.60603,-4.81809 0,-12.84884 0,-18.08558 0,-3.4531 -1.97467,-13.56419 -4.5214,-13.56419 -4.73281,0 -1.73333,0.67861 -3.01426,4.5214 -0.22467,0.67402 -1.00476,1.00476 -1.50714,1.50714 -0.50237,1.00475 -1.23468,1.92445 -1.50713,3.01426 -1.86043,7.44176 -2.41112,15.37362 0,22.60697 0.70706,2.12115 -0.99616,5.54333 0,7.53566 2.17452,4.34905 8.92068,12.74957 13.56419,15.07132 1.79571,0.89786 6.17463,1.65324 7.53566,3.01426 0.35523,0.35524 -0.35524,1.1519 0,1.50714 1.98665,1.98665 11.99741,-0.72375 13.56418,-1.50714 2.80145,-1.40072 4.66011,-4.59075 7.53566,-6.02852 0.44934,-0.22467 1.1519,0.35524 1.50714,0 0.71046,-0.71047 -0.44934,-2.11559 0,-3.01427 0.63546,-1.27092 2.37879,-1.74333 3.01426,-3.01426 0.81337,-1.62673 0.65314,-12.2579 0,-13.56419 -1.13707,-2.27413 -2.07703,-3.21682 -3.01426,-6.02852 -0.31774,-0.9532 0.44933,-2.11558 0,-3.01427 -0.31774,-0.63546 -1.28247,-0.83312 -1.50714,-1.50713 -0.31773,-0.95319 0.31774,-2.06107 0,-3.01426 -1.82845,-5.48537 -7.13005,-11.24585 -9.04278,-15.07132 -3.13617,-6.27232 0.10403,1.61118 -3.01427,-1.50713 -0.71047,-0.71047 0.71047,-2.30379 0,-3.01426 -0.35524,-0.35524 -1.50713,-0.50238 -1.50713,0 0,0.71047 1.1894,0.87167 1.50713,1.50712 2.94871,5.89742 3.84766,2.34054 7.53565,6.02854 0.79433,0.79432 0.71281,2.21993 1.50714,3.01426 0.35523,0.35523 1.05779,-0.22467 1.50713,0 1.27092,0.63546 1.74334,2.3788 3.01427,3.01426 6.01799,3.009 12.69419,6.46353 19.5927,3.01426 1.34803,-0.67401 3.09161,0.4766 4.5214,0 1.34802,-0.44934 1.66625,-2.56492 3.01426,-3.01426 0.9532,-0.31773 2.06107,0.31774 3.01427,0 1.50085,-0.50028 3.02054,-2.51397 4.52139,-3.01426 0.9532,-0.31773 2.06107,0.31773 3.01427,0 2.39559,-0.79853 3.75162,-4.89007 6.02853,-6.02853 0.91342,-0.4567 3.88984,-0.87557 4.5214,-1.50713 0.35524,-0.35524 -0.22467,-1.05779 0,-1.50714 0.30661,-0.61321 10.47267,-7.53565 10.54992,-7.53565"
       id="path1" /></g></svg>
