<?xml version="1.0" encoding="UTF-8" standalone="no"?>
<!-- Uploaded to: SVG Repo, www.svgrepo.com, Generator: SVG Repo Mixer Tools -->

<svg
   width="780"
   height="645.64697"
   viewBox="0 0 23.4 19.369409"
   fill="none"
   version="1.1"
   id="svg1"
   sodipodi:docname="lagrimas.svg"
   xml:space="preserve"
   inkscape:export-filename="leggiamo/public/colores.svg"
   inkscape:export-xdpi="96"
   inkscape:export-ydpi="96"
   inkscape:version="1.4.2 (ebf0e940d0, 2025-05-08)"
   xmlns:inkscape="http://www.inkscape.org/namespaces/inkscape"
   xmlns:sodipodi="http://sodipodi.sourceforge.net/DTD/sodipodi-0.dtd"
   xmlns="http://www.w3.org/2000/svg"
   xmlns:svg="http://www.w3.org/2000/svg"><defs
     id="defs1" /><sodipodi:namedview
     id="namedview1"
     pagecolor="#cfcfcf"
     bordercolor="#eeeeee"
     borderopacity="1"
     inkscape:showpageshadow="0"
     inkscape:pageopacity="0"
     inkscape:pagecheckerboard="true"
     inkscape:deskcolor="#505050"
     showguides="false"
     inkscape:zoom="0.77963057"
     inkscape:cx="275.77164"
     inkscape:cy="224.46529"
     inkscape:window-width="1920"
     inkscape:window-height="963"
     inkscape:window-x="0"
     inkscape:window-y="0"
     inkscape:window-maximized="1"
     inkscape:current-layer="svg1"><inkscape:page
       x="0"
       y="0"
       width="23.4"
       height="19.36941"
       id="page2"
       margin="0"
       bleed="0" /></sodipodi:namedview><path
     fill-rule="evenodd"
     clip-rule="evenodd"
     d="m 20.768851,2.6311016 c 1.113092,0 2.015355,0.902291 2.015355,2.015317 V 16.738263 c 0,1.112977 -0.902263,2.015351 -2.015355,2.015351 H 2.6311022 c -1.113027,0 -2.01530598,-0.902374 -2.01530598,-2.015351 V 2.6311016 c 0,-1.113027 0.90227898,-2.01530606 2.01530598,-2.01530606 h 6.045924 c 1.128558,0 1.8469348,0.47909706 2.5685208,1.38940606 0.01977,0.02511 0.06826,0.08747 0.121922,0.156645 0.07598,0.09794 0.16306,0.210131 0.193978,0.248396 0.03112,0.03874 0.05754,0.07077 0.07931,0.09724 0.08868,0.107787 0.101361,0.123416 0.06111,0.123625 z"
     fill="#000000"
     id="path622"
     sodipodi:nodetypes="ssssssssscccccs"
     style="fill:#b9c2a9;fill-opacity:1;stroke:#727d5f;stroke-width:1.23159;stroke-linejoin:round;stroke-dasharray:none;stroke-opacity:1"
     inkscape:export-filename="leggiamo/public/colores.svg"
     inkscape:export-xdpi="96"
     inkscape:export-ydpi="96" /><style
     type="text/css"
     id="style1">
	.st0{fill:#000000;}
</style><style
     type="text/css"
     id="style1-6">
	.puchipuchi_een{fill:#111918;}
</style><path
     style="fill:#727d5f;fill-opacity:1;stroke-width:0.0146488"
     d="m 14.239771,12.337355 c 0.668415,0 1.21023,-0.541827 1.21023,-1.210242 0,-0.574128 -0.399981,-1.054579 -0.936421,-1.1787344 -0.0088,-1.214833 -0.999019,-2.196324 -2.216426,-2.196324 -0.835872,0 -1.563501,0.462686 -1.941196,1.145802 -0.11493,-0.04979 -0.241615,-0.07743 -0.3747498,-0.07743 -0.47974,0 -0.875684,0.357702 -0.936289,0.820898 -0.624248,0.123775 -1.094918,0.6742924 -1.094918,1.3349074 0,0.751732 0.609392,1.361082 1.361071,1.361082 0.209407,0 4.7852368,0 4.9286988,1e-6 z"
     id="path589" /></svg>
