<?xml version="1.0" encoding="UTF-8" standalone="no"?>
<!-- Uploaded to: SVG Repo, www.svgrepo.com, Generator: SVG Repo Mixer Tools -->

<svg
   width="780"
   height="480"
   viewBox="0 0 23.4 14.4"
   fill="none"
   version="1.1"
   id="svg1"
   sodipodi:docname="lagrimas.svg"
   xml:space="preserve"
   inkscape:export-filename="leggiamo/public/colores.svg"
   inkscape:export-xdpi="96"
   inkscape:export-ydpi="96"
   inkscape:version="1.4.2 (ebf0e940d0, 2025-05-08)"
   xmlns:inkscape="http://www.inkscape.org/namespaces/inkscape"
   xmlns:sodipodi="http://sodipodi.sourceforge.net/DTD/sodipodi-0.dtd"
   xmlns="http://www.w3.org/2000/svg"
   xmlns:svg="http://www.w3.org/2000/svg"><defs
     id="defs1" /><sodipodi:namedview
     id="namedview1"
     pagecolor="#cfcfcf"
     bordercolor="#eeeeee"
     borderopacity="1"
     inkscape:showpageshadow="0"
     inkscape:pageopacity="0"
     inkscape:pagecheckerboard="true"
     inkscape:deskcolor="#505050"
     showguides="false"
     inkscape:zoom="0.77963057"
     inkscape:cx="312.96874"
     inkscape:cy="216.76933"
     inkscape:window-width="1920"
     inkscape:window-height="963"
     inkscape:window-x="0"
     inkscape:window-y="0"
     inkscape:window-maximized="1"
     inkscape:current-layer="svg1"><inkscape:page
       x="0"
       y="0"
       width="23.4"
       height="14.4"
       id="page2"
       margin="0"
       bleed="0" /></sodipodi:namedview><style
     type="text/css"
     id="style1">
	.st0{fill:#000000;}
</style><style
     type="text/css"
     id="style1-6">
	.puchipuchi_een{fill:#111918;}
</style><path
     style="fill:#727d5f;fill-opacity:1;stroke-width:0.0457042"
     d="m 19.624082,14.353069 c 2.085455,0 3.775918,-1.690501 3.775918,-3.775956 0,-1.7912796 -1.247941,-3.2902866 -2.921635,-3.677651 -0.02746,-3.7902794 -3.116939,-6.85253123 -6.915249,-6.85253123 -2.60792,0 -4.8781235,1.44358023 -6.0565309,3.57490283 C 7.1480032,3.4664879 6.7527461,3.3802512 6.337365,3.3802512 c -1.4967883,0 -2.7321342,1.1160306 -2.9212214,2.5612011 C 1.46849,6.3276311 -3.8146971e-7,8.0452454 -3.8146971e-7,10.106364 -3.8146971e-7,12.451768 1.9013026,14.35294 4.2465408,14.35294 c 0.6533507,0 14.9299392,0 15.3775412,3e-6 z"
     id="path589" /></svg>
