<?xml version="1.0" encoding="UTF-8" standalone="no"?>
<!-- Created with Inkscape (http://www.inkscape.org/) -->

<svg
   width="210mm"
   height="297mm"
   viewBox="0 0 793.70081 1122.5197"
   version="1.1"
   id="svg1"
   inkscape:version="1.4 (e7c3feb100, 2024-10-09)"
   sodipodi:docname="memorias.svg"
   xml:space="preserve"
   xmlns:inkscape="http://www.inkscape.org/namespaces/inkscape"
   xmlns:sodipodi="http://sodipodi.sourceforge.net/DTD/sodipodi-0.dtd"
   xmlns:xlink="http://www.w3.org/1999/xlink"
   xmlns="http://www.w3.org/2000/svg"
   xmlns:svg="http://www.w3.org/2000/svg"><sodipodi:namedview
     id="namedview1"
     pagecolor="#ffffff"
     bordercolor="#111111"
     borderopacity="1"
     inkscape:showpageshadow="0"
     inkscape:pageopacity="0"
     inkscape:pagecheckerboard="1"
     inkscape:deskcolor="#d1d1d1"
     inkscape:document-units="mm"
     inkscape:zoom="0.4081959"
     inkscape:cx="317.24963"
     inkscape:cy="500.98494"
     inkscape:window-width="1534"
     inkscape:window-height="803"
     inkscape:window-x="0"
     inkscape:window-y="0"
     inkscape:window-maximized="1"
     inkscape:current-layer="svg1" /><defs
     id="defs1"><inkscape:path-effect
       effect="fillet_chamfer"
       id="path-effect3"
       is_visible="true"
       lpeversion="1"
       nodesatellites_param="F,0,0,1,0,0,0,1 @ F,0,0,1,0,0,0,1 @ F,0,0,1,0,0,0,1 @ F,0,0,1,0,0.15594925,0,1"
       radius="0"
       unit="px"
       method="auto"
       mode="F"
       chamfer_steps="1"
       flexible="false"
       use_knot_distance="true"
       apply_no_radius="true"
       apply_with_radius="true"
       only_selected="false"
       hide_knots="false" /><inkscape:path-effect
       effect="fillet_chamfer"
       id="path-effect2"
       is_visible="true"
       lpeversion="1"
       nodesatellites_param=""
       radius="0"
       unit="px"
       method="auto"
       mode="F"
       chamfer_steps="1"
       flexible="false"
       use_knot_distance="true"
       apply_no_radius="true"
       apply_with_radius="true"
       only_selected="false"
       hide_knots="false" /><inkscape:path-effect
       effect="fillet_chamfer"
       id="path-effect1"
       is_visible="true"
       lpeversion="1"
       nodesatellites_param=""
       radius="0"
       unit="px"
       method="auto"
       mode="F"
       chamfer_steps="1"
       flexible="false"
       use_knot_distance="true"
       apply_no_radius="true"
       apply_with_radius="true"
       only_selected="false"
       hide_knots="false" /><linearGradient
       id="linearGradient24"
       inkscape:collect="always"><stop
         style="stop-color:#133157;stop-opacity:1;"
         offset="0"
         id="stop24" /><stop
         style="stop-color:#133157;stop-opacity:0;"
         offset="1"
         id="stop25" /></linearGradient><linearGradient
       id="linearGradient21"
       inkscape:collect="always"><stop
         style="stop-color:#e9dea0;stop-opacity:1;"
         offset="0"
         id="stop22" /><stop
         style="stop-color:#e9dea0;stop-opacity:0;"
         offset="1"
         id="stop23" /></linearGradient><linearGradient
       id="linearGradient20"
       inkscape:collect="always"><stop
         style="stop-color:#f9f2c8;stop-opacity:1;"
         offset="0"
         id="stop20" /><stop
         style="stop-color:#f9f2c8;stop-opacity:0.40509754;"
         offset="1"
         id="stop21" /></linearGradient><linearGradient
       id="linearGradient15"
       inkscape:collect="always"><stop
         style="stop-color:#4184c3;stop-opacity:1;"
         offset="0"
         id="stop15" /><stop
         style="stop-color:#124678;stop-opacity:0;"
         offset="1"
         id="stop16" /></linearGradient><linearGradient
       inkscape:collect="always"
       xlink:href="#linearGradient15"
       id="linearGradient16"
       x1="195.9079"
       y1="6.7072268"
       x2="196.09509"
       y2="13.763284"
       gradientUnits="userSpaceOnUse"
       gradientTransform="matrix(-16.139644,0,0,16.139644,3815.4639,36.12208)" /><radialGradient
       inkscape:collect="always"
       xlink:href="#linearGradient20"
       id="radialGradient21"
       cx="170.25053"
       cy="34.843086"
       fx="170.25053"
       fy="34.843086"
       r="20.88872"
       gradientTransform="matrix(11.151484,0,0,11.204712,-1503.3365,129.52592)"
       gradientUnits="userSpaceOnUse" /><linearGradient
       inkscape:collect="always"
       xlink:href="#linearGradient21"
       id="linearGradient23"
       x1="168.34926"
       y1="47.56073"
       x2="175.32388"
       y2="68.124329"
       gradientUnits="userSpaceOnUse"
       gradientTransform="matrix(11.151484,0,0,11.151484,-1503.3365,131.38057)" /><linearGradient
       inkscape:collect="always"
       xlink:href="#linearGradient24"
       id="linearGradient25"
       x1="170.02824"
       y1="62.718071"
       x2="170.05286"
       y2="35.80426"
       gradientUnits="userSpaceOnUse"
       gradientTransform="matrix(11.151484,0,0,16.197733,-1503.3365,-100.66656)" /><linearGradient
       inkscape:collect="always"
       xlink:href="#linearGradient15"
       id="linearGradient8"
       gradientUnits="userSpaceOnUse"
       gradientTransform="matrix(16.139644,0,0,16.139644,-3150.4792,165.9617)"
       x1="195.9079"
       y1="6.7072268"
       x2="196.09509"
       y2="13.763284" /><linearGradient
       inkscape:collect="always"
       xlink:href="#linearGradient15"
       id="linearGradient9"
       gradientUnits="userSpaceOnUse"
       gradientTransform="matrix(-16.139644,0,0,16.139644,3271.126,-123.36001)"
       x1="195.9079"
       y1="6.7072268"
       x2="196.09509"
       y2="13.763284" /></defs><rect
     style="fill:#124678;fill-opacity:1;stroke:none;stroke-width:6.13276;stroke-linecap:round;stroke-linejoin:round;stroke-dasharray:none"
     id="rect11"
     width="793.48962"
     height="1122.5198"
     x="0.21130182"
     y="1.256773e-06" /><path
     id="path2"
     style="fill:url(#radialGradient21);fill-opacity:1;stroke:none;stroke-width:3.60743;stroke-linecap:round;stroke-linejoin:round;stroke-dasharray:none"
     d="m 390.2486,285.9357 a 232.94023,234.0521 0 0 0 -64.92829,10.73013 232.94023,234.0521 0 0 0 -153.13764,290.80834 232.94023,234.0521 0 0 0 27.48796,59.59774 c 105.4336,3.41142 241.49107,5.58244 389.93818,1.6827 A 232.94023,234.0521 0 0 0 616.56663,447.03744 232.94023,234.0521 0 0 0 390.2486,285.9357 Z" /><path
     style="fill:url(#linearGradient25);fill-opacity:1;stroke:none;stroke-width:4.03194;stroke-linecap:round;stroke-linejoin:round;stroke-dasharray:none"
     d="m -0.1082047,634.89092 c 0,0 398.6358947,41.2796 793.8091347,2.43772 l -0.003,485.19106 H 0.21128531 Z"
     id="path3"
     sodipodi:nodetypes="ccccc" /><path
     style="fill:url(#linearGradient23);fill-opacity:1;stroke:none;stroke-width:7.03872;stroke-linecap:round;stroke-linejoin:round;stroke-dasharray:none"
     d="m 589.71263,648.84946 c 0,0 -31.71739,22.70848 -74.9973,19.22288 -43.27969,-3.48559 17.42821,10.16638 17.42821,10.16638 0,0 25.2706,11.6187 -34.2752,10.74733 -59.54591,-0.87138 -46.76542,9.29493 -46.76542,9.29493 0,0 44.44156,-2.90466 67.67913,5.80941 23.23747,8.714 -42.98941,9.5854 -42.98941,9.5854 0,0 -73.19767,1.45232 -51.99357,11.03783 21.2041,9.5854 -18.00909,16.55665 -18.00909,16.55665 0,0 -27.01369,5.22843 48.21756,10.45686 75.23137,5.22841 -64.19329,19.46132 -64.19329,19.46132 0,0 -36.88944,13.94251 28.17534,15.10437 65.06489,1.16181 9.2951,9.8759 9.2951,9.8759 0,0 -7.26174,10.45683 53.15566,13.94244 60.41729,3.4856 -13.0711,9.00455 -13.0711,9.00455 0,0 -15.10446,6.97118 14.23287,14.81383 29.33721,7.84263 -35.72746,9.29499 -35.72746,9.29499 0,0 -46.47482,-3.48565 -18.29959,-11.03777 28.17556,-7.55217 -21.4946,-16.55672 -21.4946,-16.55672 0,0 -27.88506,-9.29493 -3.4855,-17.13755 24.39922,-7.84264 -73.48851,-4.35704 -73.48851,-4.35704 0,0 -30.20859,-2.03327 5.51887,-6.3903 35.72746,-4.35704 -20.91371,-11.9092 -20.91371,-11.9092 0,0 -32.53234,-10.16637 24.10906,-16.84712 56.64095,-6.68078 -28.75656,-21.20415 -28.75656,-21.20415 0,0 -53.15577,-3.77611 -7.26162,-15.10435 45.89393,-11.3283 -62.16027,-11.03778 -62.16027,-11.03778 0,0 -57.80327,-2.61419 -15.97561,-9.87593 41.82732,-7.2617 -38.9227,-15.68526 -38.9227,-15.68526 0,0 -38.63219,-12.19968 28.75622,-19.17086 67.38864,-6.97125 -13.53879,-19.62237 -13.53879,-19.62237 z"
     id="path4"
     sodipodi:nodetypes="cscscscscscscscscscscscscscscscc" /><g
     id="g7"
     style="fill:#232118;fill-opacity:1"
     transform="matrix(27.277697,0,0,27.277697,-5649.6435,-447.02555)"><path
       style="opacity:1;fill:#232118;fill-opacity:1;stroke:none;stroke-width:0.3;stroke-linecap:round;stroke-linejoin:round;stroke-dasharray:none"
       d="m 224.65898,39.650146 0.44988,-0.0075 0.68352,-0.01139 -0.74148,-1.2358 a 0.06240094,0.06240094 170.84422 0 0 -0.1144,0.01844 z"
       id="path5"
       sodipodi:nodetypes="ccccc"
       inkscape:path-effect="#path-effect3"
       inkscape:original-d="m 224.65898,39.650146 0.44988,-0.0075 0.68352,-0.01139 -0.82172,-1.369525 z" /><path
       style="opacity:1;fill:#232118;fill-opacity:1;stroke:none;stroke-width:0.3;stroke-linecap:round;stroke-linejoin:round;stroke-dasharray:none"
       d="m 224.63064,40.301851 1.36953,-0.0094 c 0,0 0.35891,-0.198348 0.44391,-0.396693 l -2.32346,-4.1e-5 c 0,0 0.17944,0.349462 0.51002,0.406134 z"
       id="path6" /><path
       style="opacity:1;fill:#232118;fill-opacity:1;stroke:none;stroke-width:0.3;stroke-linecap:round;stroke-linejoin:round;stroke-dasharray:none"
       d="m 225.10906,39.623681 0.004,0.286161 h -0.18315 l 0.0115,-0.278529 z"
       id="path7"
       sodipodi:nodetypes="ccccc" /></g><path
     style="fill:url(#linearGradient16);stroke:none;stroke-width:1.61397;stroke-linecap:round;stroke-linejoin:round;stroke-dasharray:none;stroke-opacity:1"
     d="m 720.62191,176.97593 c 3.346,-45.34152 -82.82207,-57.12391 -86.20253,-16.558 -7.8879,-36.622 -84.89871,-22.41855 -90.08147,19.06415 -34.66751,-13.31375 -39.09086,12.79551 -39.09086,12.79551 0,0 -27.27184,45.01785 97.06977,57.67911 140.52252,14.30889 212.42774,-9.84765 212.42774,-9.84765 30.967,-13.94121 -0.0781,-50.44652 -25.38591,-29.8916 13.53567,-34.14501 -50.20231,-47.13111 -68.73674,-33.24152 z"
     id="path11"
     sodipodi:nodetypes="cscccccc" /><path
     style="fill:url(#linearGradient8);stroke:none;stroke-width:1.61397;stroke-linecap:round;stroke-linejoin:round;stroke-dasharray:none;stroke-opacity:1"
     d="m -55.637131,306.81556 c -3.346003,-45.34152 82.822072,-57.12391 86.202533,-16.558 7.88789,-36.622 84.898698,-22.41855 90.081468,19.06415 34.66751,-13.31375 39.09085,12.79551 39.09085,12.79551 0,0 27.27185,45.01784 -97.069761,57.67911 -140.522526,14.30889 -212.427739,-9.84766 -212.427739,-9.84766 -30.967,-13.9412 0.0781,-50.44651 25.38591,-29.89159 -13.53568,-34.14501 50.202304,-47.13112 68.736739,-33.24152 z"
     id="path8"
     sodipodi:nodetypes="cscccccc" /><path
     style="fill:url(#linearGradient9);stroke:none;stroke-width:1.61397;stroke-linecap:round;stroke-linejoin:round;stroke-dasharray:none;stroke-opacity:1"
     d="M 176.28396,17.493847 C 179.62996,-27.847672 93.46189,-39.63006 90.081429,0.93584522 82.193539,-35.686148 5.1827284,-21.482708 -3.530704e-5,19.999999 -34.667546,6.6862418 -39.090893,32.795501 -39.090893,32.795501 c 0,0 -27.271847,45.017824 97.069765,57.679063 C 198.5014,104.78346 270.40661,80.626923 270.40661,80.626923 301.37361,66.68575 270.32855,30.180445 245.02071,50.735363 258.55638,16.590354 194.8184,3.6042504 176.28396,17.493847 Z"
     id="path9"
     sodipodi:nodetypes="cscccccc" /></svg>
