<?xml version="1.0" encoding="UTF-8" standalone="no"?>
<!-- Created with Inkscape (http://www.inkscape.org/) -->

<svg
   width="210mm"
   height="297mm"
   viewBox="0 0 793.70081 1122.5197"
   version="1.1"
   id="svg1"
   inkscape:version="1.4 (e7c3feb100, 2024-10-09)"
   sodipodi:docname="mono.svg"
   xml:space="preserve"
   xmlns:inkscape="http://www.inkscape.org/namespaces/inkscape"
   xmlns:sodipodi="http://sodipodi.sourceforge.net/DTD/sodipodi-0.dtd"
   xmlns="http://www.w3.org/2000/svg"
   xmlns:svg="http://www.w3.org/2000/svg"><sodipodi:namedview
     id="namedview1"
     pagecolor="#ffffff"
     bordercolor="#111111"
     borderopacity="1"
     inkscape:showpageshadow="0"
     inkscape:pageopacity="0"
     inkscape:pagecheckerboard="1"
     inkscape:deskcolor="#d1d1d1"
     inkscape:document-units="mm"
     inkscape:zoom="0.5614534"
     inkscape:cx="587.76027"
     inkscape:cy="580.6359"
     inkscape:window-width="1536"
     inkscape:window-height="808"
     inkscape:window-x="0"
     inkscape:window-y="0"
     inkscape:window-maximized="1"
     inkscape:current-layer="layer1" /><defs
     id="defs1"><inkscape:path-effect
       effect="powerstroke"
       message=""
       id="path-effect12"
       is_visible="true"
       lpeversion="1.3"
       scale_width="1"
       interpolator_type="CentripetalCatmullRom"
       interpolator_beta="0.2"
       start_linecap_type="zerowidth"
       end_linecap_type="zerowidth"
       offset_points="0.2,5.6692915 | 0.5,5.6692915 | 0.8,5.6692915"
       linejoin_type="round"
       miter_limit="4"
       not_jump="false"
       sort_points="true" /><inkscape:path-effect
       effect="powerstroke"
       message=""
       id="path-effect11"
       is_visible="true"
       lpeversion="1.3"
       scale_width="1"
       interpolator_type="CentripetalCatmullRom"
       interpolator_beta="0.2"
       start_linecap_type="zerowidth"
       end_linecap_type="zerowidth"
       offset_points="0.2,5.6692915 | 0.5,5.6692915 | 0.8,5.6692915"
       linejoin_type="round"
       miter_limit="4"
       not_jump="false"
       sort_points="true" /><mask
       maskUnits="userSpaceOnUse"
       id="mask254"><path
         style="opacity:0.9;fill:#ffffff;fill-opacity:1;stroke:none;stroke-width:0.199396;stroke-linecap:round;stroke-linejoin:round;stroke-dasharray:none;stroke-opacity:1"
         id="path255"
         sodipodi:type="arc"
         sodipodi:cx="150.49463"
         sodipodi:cy="148.56822"
         sodipodi:rx="16.162447"
         sodipodi:ry="16.142408"
         sodipodi:start="1.2900283"
         sodipodi:end="1.2421143"
         sodipodi:open="true"
         sodipodi:arc-type="arc"
         d="m 154.97314,164.07854 a 16.162447,16.142408 0 0 1 -19.95332,-10.85189 16.162447,16.142408 0 0 1 10.62558,-20.05715 16.162447,16.142408 0 0 1 20.20787,10.3714 16.162447,16.142408 0 0 1 -10.14147,20.3056" /></mask><mask
       maskUnits="userSpaceOnUse"
       id="mask251"><path
         style="opacity:0.9;fill:#ffffff;fill-opacity:1;stroke:none;stroke-width:0.199396;stroke-linecap:round;stroke-linejoin:round;stroke-dasharray:none;stroke-opacity:1"
         id="path252"
         sodipodi:type="arc"
         sodipodi:cx="150.49463"
         sodipodi:cy="148.56822"
         sodipodi:rx="16.162447"
         sodipodi:ry="16.142408"
         sodipodi:start="1.2900283"
         sodipodi:end="1.2421143"
         sodipodi:open="true"
         sodipodi:arc-type="arc"
         d="m 154.97314,164.07854 a 16.162447,16.142408 0 0 1 -19.95332,-10.85189 16.162447,16.142408 0 0 1 10.62558,-20.05715 16.162447,16.142408 0 0 1 20.20787,10.3714 16.162447,16.142408 0 0 1 -10.14147,20.3056" /></mask><mask
       maskUnits="userSpaceOnUse"
       id="mask250"><path
         style="opacity:0.9;fill:#ffffff;fill-opacity:1;stroke:none;stroke-width:0.199396;stroke-linecap:round;stroke-linejoin:round;stroke-dasharray:none;stroke-opacity:1"
         id="path251"
         sodipodi:type="arc"
         sodipodi:cx="150.49463"
         sodipodi:cy="148.56822"
         sodipodi:rx="16.162447"
         sodipodi:ry="16.142408"
         sodipodi:start="1.2900283"
         sodipodi:end="1.2421143"
         sodipodi:open="true"
         sodipodi:arc-type="arc"
         d="m 154.97314,164.07854 a 16.162447,16.142408 0 0 1 -19.95332,-10.85189 16.162447,16.142408 0 0 1 10.62558,-20.05715 16.162447,16.142408 0 0 1 20.20787,10.3714 16.162447,16.142408 0 0 1 -10.14147,20.3056" /></mask></defs><g
     inkscape:label="Layer 1"
     inkscape:groupmode="layer"
     id="layer1"><g
       id="g2"
       inkscape:label="joker"><path
         style="opacity:1;fill:#2d3dca;fill-opacity:1;stroke:none;stroke-width:3.77953;stroke-linecap:round;stroke-linejoin:round"
         d="m -784.64939,1201.7679 62.71361,105.0088 64.17208,-115.2181 -71.46436,-91.8827 z"
         id="path8"
         sodipodi:nodetypes="ccccc" /><path
         style="opacity:1;fill:#2d3dca;fill-opacity:1;stroke:none;stroke-width:3.77953;stroke-linecap:round;stroke-linejoin:round"
         d="m -609.63465,1201.7678 59.7967,99.1751 59.7967,-112.3012 -70.0059,-94.7996 z"
         id="path9"
         sodipodi:nodetypes="ccccc" /><path
         style="opacity:1;fill:#bb1530;fill-opacity:1;fill-rule:nonzero;stroke:none;stroke-width:11.3386;stroke-linecap:round;stroke-linejoin:round;stroke-dasharray:none;stroke-opacity:1"
         d="m -615.46847,1063.2145 c 0.40806,0.3244 1.34669,0.8361 3.05297,0.7446 1.65974,-0.089 3.90742,-0.7638 6.10375,-2.0552 0.93758,-0.5513 1.93508,-1.2356 3.03546,-2.0326 5.12277,-3.7103 12.16325,-9.5732 22.18852,-13.203 10.12348,-3.6654 22.19388,-4.6932 36.17957,-3.226 2.97737,0.3123 5.95036,0.723 8.96365,1.2061 7.38205,1.1835 15.00329,2.7041 23.92201,5.614 8.63968,2.8188 16.02513,6.1863 20.52283,8.5767 -3.93211,-3.2288 -10.17291,-8.4687 -18.0925,-13.6234 -7.92923,-5.161 -16.00655,-9.2142 -23.73325,-11.5992 -3.25347,-1.0043 -6.58543,-1.7761 -9.9569,-2.3138 -16.12448,-2.572 -30.13736,0.5303 -41.66551,4.7043 -11.42032,4.135 -20.64202,9.3735 -26.12284,14.4165 -1.16259,1.0697 -2.12956,2.1107 -2.89025,3.1106 -1.81338,2.3838 -2.60846,4.8839 -2.6234,6.6838 -0.0151,1.8238 0.72643,2.687 1.11589,2.9966 z"
         id="path10"
         inkscape:path-effect="#path-effect11"
         inkscape:original-d="m -615.46847,1063.2145 c 0,0 45.21214,-56.8798 123.96876,-4.3754" /><path
         style="opacity:1;fill:#bb1530;fill-opacity:1;fill-rule:nonzero;stroke:none;stroke-width:11.3386;stroke-linecap:round;stroke-linejoin:round;stroke-dasharray:none;stroke-opacity:1"
         d="m -662.13908,1063.2145 c 0.3325,-0.3741 0.88194,-1.3707 0.40184,-3.3221 -0.47297,-1.9224 -1.92924,-4.5213 -4.40094,-6.9213 -1.03944,-1.0094 -2.30238,-2.0489 -3.77484,-3.1116 -6.9075,-4.9855 -17.82743,-10.1275 -30.23958,-14.1032 -6.03692,-1.9338 -12.66521,-3.6833 -19.79381,-4.5443 -7.29944,-0.8815 -14.73947,-0.7771 -22.04216,0.7502 -3.12777,0.6542 -6.14973,1.5539 -9.02982,2.6948 -4.3426,1.7203 -8.72876,4.1861 -12.97181,7.3029 -9.29389,6.8267 -15.4605,14.9166 -19.20073,19.7961 4.98176,-4.0282 13.0651,-9.1606 23.02613,-12.74 4.50787,-1.6198 8.63082,-2.6722 12.54369,-3.5413 2.57273,-0.5715 5.16614,-1.0673 7.81827,-1.4614 6.17213,-0.9172 12.3563,-1.2333 18.68067,-0.7824 6.16581,0.4396 12.09506,1.5888 17.51076,3.3235 11.26829,3.6094 20.28664,9.6564 27.00482,13.5619 1.43147,0.8321 2.73017,1.5471 3.92872,2.1174 2.81787,1.3408 5.52368,1.9883 7.3972,1.997 1.92223,0.01 2.79592,-0.6273 3.14159,-1.0162 z"
         id="path11"
         inkscape:path-effect="#path-effect12"
         inkscape:original-d="m -662.13908,1063.2145 c 0,0 -65.63052,-58.3383 -121.05185,-1.4585" /><path
         style="opacity:1;fill:#bb1530;fill-opacity:1;stroke:#bb1530;stroke-width:11.3386;stroke-linecap:round;stroke-linejoin:round;stroke-dasharray:none;stroke-opacity:1"
         d="m -805.0438,1376.1547 c 0,0 66.25453,108.9803 173.2528,113.3746 124.14906,5.0987 163.34708,-122.5104 163.34708,-122.5104 0,0 1.65033,180.6826 -151.92389,180.665 0,0 -137.66142,9.8259 -184.67599,-171.5292 z"
         id="path13"
         sodipodi:nodetypes="csccc" /><path
         style="opacity:1;fill:#bb1530;fill-opacity:1;stroke:#bb1530;stroke-width:11.3386;stroke-linecap:round;stroke-linejoin:round;stroke-dasharray:none;stroke-opacity:1"
         id="path14"
         sodipodi:type="arc"
         sodipodi:cx="-627.22614"
         sodipodi:cy="1342.7285"
         sodipodi:rx="32.522835"
         sodipodi:ry="36.505226"
         sodipodi:start="1.2900283"
         sodipodi:end="1.2421143"
         sodipodi:open="true"
         sodipodi:arc-type="arc"
         d="m -618.21426,1377.8043 a 32.522835,36.505226 0 0 1 -40.15102,-24.541 32.522835,36.505226 0 0 1 21.38129,-45.3582 32.522835,36.505226 0 0 1 40.66324,23.4544 32.522835,36.505226 0 0 1 -20.40715,45.9201" /></g><rect
       style="fill:#93ac9b;fill-opacity:1;stroke-width:3.77953;stroke-linecap:round;stroke-linejoin:round;stroke:none"
       id="rect5"
       width="793.70081"
       height="1122.5197"
       x="0"
       y="0" /><path
       style="fill:#e5d0b4;fill-opacity:1;stroke:none;stroke-width:15.9118;stroke-linecap:round;stroke-linejoin:round"
       d="m 511.42831,401.54795 4.23835,-32.09041 -6.25662,-36.32877 c 0,0 31.88859,-14.53151 38.54886,15.94429 0,0 10.89863,61.75891 -36.53059,52.47489 z"
       id="path1" /><path
       style="opacity:1;fill:#c3b59e;fill-opacity:1;stroke:none;stroke-width:15.9118;stroke-linecap:round;stroke-linejoin:round"
       d="m 447.31481,486.07602 c 0,0 35.06746,-5.44224 56.28121,-59.39895 0,0 25.36427,-54.41789 5.53402,-93.15605 0,0 -25.17609,-62.70302 -79.58512,-70.33938 0,0 -48.20448,-13.84089 -108.81804,22.43179 0,0 -51.1979,39.15197 -41.04541,94.97716 0,0 3.34091,91.15898 88.29535,116.4544 0,0 -27.20451,-23.38634 -12.88635,-59.18175 0,0 -50.11357,-38.65904 -15.74998,-83.04535 0,0 25.7727,-27.20451 58.2272,1.90909 0,0 18.13634,-31.02269 52.49994,-12.40908 0,0 31.97723,10.02272 21.95451,48.68176 0,0 -10.02271,33.88632 -22.43179,43.43177 0,0 18.13634,19.56815 -3.3409,53.45448"
       id="path2"
       sodipodi:nodetypes="cccccc" /><g
       id="g7"
       transform="matrix(0.62269894,0,0,0.62269894,124.68729,244.58598)"><path
         style="opacity:1;fill:#e7b8c1;fill-opacity:1;stroke:none;stroke-width:3.77953;stroke-linecap:round;stroke-linejoin:round"
         d="m 327.37543,635.74196 c 0,0 9.50445,61.60292 102.08481,32.38554 0,0 124.96589,18.65687 134.82236,-47.87426 0,0 8.13552,-14.90241 -15.80011,-8.96094 0,0 31.06539,-57.0381 -2.54635,-67.9025 0,0 -16.2966,-29.36783 -37.85564,-35.64882 l -2.88586,22.57759 c 0,0 -17.31514,-44.98541 -54.322,-24.44491 0,0 -51.68467,-26.01092 -83.65016,12.42378 0,0 -43.76226,9.51353 -41.85955,54.41742 0,0 -19.40762,-14.84112 -9.133,22.83248 0,0 -32.12643,4.28095 11.1455,40.19462 z"
         id="path7"
         sodipodi:nodetypes="ccccccccc" /><path
         id="path249"
         style="opacity:1;fill:none;fill-opacity:1;stroke:#42574c;stroke-width:0.2;stroke-linecap:round;stroke-linejoin:round;stroke-dasharray:none;stroke-opacity:1"
         d="m 154.20382,148.81771 c 0,0 -0.25605,-0.64378 -0.73888,-0.5633 0,0 0.13168,0.6584 -0.0439,0.94371 m 0.8413,1.68991 c 0,0 0.95103,-1.11929 0.18289,-2.08495 0,0 -0.4682,-0.0951 -0.73888,0.59256 m -0.11705,0.83398 c 0,0 0.79009,-0.53404 -0.18289,-1.06808 m -0.0843,-0.35356 c 0,0 0.0562,0.0225 0.10117,0.3822 0,0 -0.80394,0.22713 -0.72123,1.02018 m -3.61786,-1.33494 c 0,0 1.03419,-0.0787 0.75316,1.1466 m 5.03719,1.50588 c 0,0 1.10841,-1.58773 -0.13481,-2.11198 m -7.25151,1.01595 c 0,0 -0.23959,-1.23787 1.11808,-1.79691 0,0 0.62892,-0.27952 0.53908,1.03822 m 0.72486,0.63948 c 0,0 -0.65213,-0.0326 -0.70653,0.61416 m 2.25433,0.20904 c 0,0 -0.0916,-0.98152 -1.54425,-0.82447 0,0 -0.002,-0.77348 -0.80402,-0.61997 0,0 -1.27075,-1.0746 -1.11723,0.85286 m 7.17164,1.52598 c 0,0 0.31569,-0.16913 0.3777,-0.35516 0,0 -0.31569,-0.12965 -0.68212,0.0395 m -3.37057,-0.27854 c 0,0 -0.23633,-0.97914 0.63873,-0.86401 0,0 0.21876,-0.90959 0.97868,-0.12665 0,0 0.88656,-0.99019 0.64477,0.78295 m -4.46586,0.53567 c 0,0 -0.16659,0.60158 0.67561,1.2957 m -2.68069,-1.84888 c 0,0 0.54036,0.69908 0.87667,0.8729 m -0.57265,0.40752 c 0,0 -0.65591,-0.11309 -0.70115,-1.30052 0,0 0.11309,-0.21486 0.40712,0.0226 0,0 -0.29086,-0.52175 -0.18094,-0.9273 0,0 0.12425,-0.16633 0.43118,0.12505 m 3.23864,3.11154 0.52908,0.0176 m -0.48757,-0.0161 c -3.14742,1.01588 -3.26533,-1.25172 -3.26533,-1.25172 0,0 0.37188,-0.12698 0.99774,0.16327 0,0 0.58957,-0.11791 1.65987,0.85262 0,0 0.0859,0.0988 0.60772,0.23583 z m -1.53308,-1.78038 c 0,0 0.19966,-1.30403 -0.5865,-0.96086 m 3.33376,2.3905 c 0,0 2.95237,0.7891 2.96368,-2.54531 0,0 -1.32246,0.20346 -1.71807,1.32246 0,0 -0.0984,0.26168 -0.55294,0.52087 m 1.96233,-0.28655 c 0.32822,-0.17504 0.85338,-0.19694 0.85338,-0.19694 -1.13784,2.29755 -4.26688,1.55359 -4.26688,1.55359 0,0 0.36271,-0.12507 0.73509,-0.35702 0.48073,-0.29944 0.97757,-0.77699 0.73096,-1.3935 0,0 -0.9442,-0.8917 -1.82798,0.0571 0,0 -0.19495,-0.75385 -0.8188,-0.25997 0,0 -0.46788,-0.53287 -0.80579,0.15596 0,0 -0.15198,0.58617 -0.73848,0.69224 0,0 -1.59104,-1.17924 -0.92343,-2.13386 0,0 0.27453,-0.21214 0.44299,0.39308 0,0 0.31821,-0.39932 0.62394,0.0936 m 3.49804,-0.4474 c -0.31471,-0.3822 -0.24731,-0.67447 -0.24731,-0.67447 0.42712,-0.37096 0.35972,-0.70819 0.35972,-0.70819 0.20234,-0.64075 1.05667,-0.1911 1.05667,-0.1911 -0.61826,-1.36018 -1.68618,-0.61827 -1.68618,-0.61827 0,0 0.65199,0.59578 -0.15737,1.60749 0,0 0.52703,0.28149 0.67447,0.58454 z m -3.34986,-1.7761 c 0,0 0.96673,-1.19157 2.87773,-0.39344 0,0 -1.49507,-0.0225 -1.07915,1.42762 0,0 -0.119,-0.12643 -0.7644,0.3822"
         mask="url(#mask250)"
         transform="matrix(30.104984,0,0,30.104984,-4114.0006,-3955.1507)" /></g><path
       style="fill:#e5d0b4;fill-opacity:1;stroke:none;stroke-width:15.9118;stroke-linecap:round;stroke-linejoin:round"
       d="m 287.30766,416.11106 -5.59272,-36.15353 2.46437,-36.32877 c 0,0 -30.80509,-12.36451 -35.02748,25.69579 0,0 -4.93939,46.86079 38.15583,46.78651 z"
       id="path3"
       sodipodi:nodetypes="ccccc" /><path
       style="opacity:1;fill:#c3b59e;fill-opacity:1;stroke:none;stroke-width:15.9118;stroke-linecap:round;stroke-linejoin:round"
       d="m 286.11171,416.5264 3.37098,10.95568 c 0,0 -44.24408,0 -51.82878,-54.14633 0,0 0.42137,-50.98603 48.87917,-38.34487 l -1.89617,8.21676 -21.06861,0.21069 c 0,0 -25.49302,15.59077 -9.0595,53.51426 0,0 18.96174,21.06861 31.60291,19.59381 z"
       id="path4" /><path
       style="opacity:1;fill:#c3b59e;fill-opacity:1;stroke:none;stroke-width:15.9118;stroke-linecap:round;stroke-linejoin:round"
       d="m 510.95415,401.61183 -2.24536,10.95568 c 0,0 49.028,10.41206 48.4519,-53.0207 0,0 2.67411,-52.39307 -50.84902,-38.06346 l 2.17758,11.87505 22.75705,-3.72901 c 0,0 28.5885,13.90233 14.68764,50.41878 0,0 -6.29842,24.7269 -34.97979,21.56366 z"
       id="path5"
       sodipodi:nodetypes="cccccccc" /><path
       style="opacity:1;fill:#f5e2c6;fill-opacity:1;stroke:none;stroke-width:15.9118;stroke-linecap:round;stroke-linejoin:round"
       d="m 416.61144,509.28234 c 0,0 61.96177,-26.90446 32.3397,-70.65817 0,0 37.23142,-46.74309 20.38216,-77.99574 0,0 -41.03609,-48.9172 -70.92993,-4.61996 0,0 -50.81953,-40.49257 -72.56051,30.70913 0,0 -1.63057,20.65392 28.53503,54.08067 0,0 -22.01272,61.69001 62.23355,68.48407 z"
       id="path6" /><path
       id="path12"
       style="opacity:1;fill:none;fill-opacity:1;stroke:#42574c;stroke-width:0.2;stroke-linecap:round;stroke-linejoin:round;stroke-dasharray:none;stroke-opacity:1"
       d="m 151.09704,145.20201 c -0.0724,0.0222 -0.14818,-0.0217 -0.16993,-0.0986 -0.0217,-0.0769 0.0186,-0.15813 0.0905,-0.18222 0.0719,-0.0241 0.14862,0.0179 0.17211,0.0942 0.0235,0.0763 -0.0151,0.15857 -0.0864,0.18448 m -0.60357,0.032 c -0.0724,0.0223 -0.14818,-0.0217 -0.16993,-0.0986 -0.0217,-0.0769 0.0186,-0.15813 0.0905,-0.18222 0.0719,-0.0241 0.14862,0.0179 0.17211,0.0942 0.0235,0.0763 -0.0151,0.15857 -0.0864,0.18448 m -3.8204,-3.42308 c 0,0 -1.20107,-0.3707 -1.20107,1.17142 0,0 0.16311,1.23073 1.30487,1.34935 m 7.57035,-2.86518 c 0,0 1.10314,-0.50914 1.386,0.66471 0,0 0.24042,1.90928 -1.287,1.71128 m -4.79165,2.43505 c 0,0 1.066,0.8815 2.173,-0.082 m -0.369,-2.48049 c 0,0 0.3075,0.328 0.943,0 m -3.444,0.205 c 0,0 0.287,0.287 0.861,-0.041 m -3.05154,-2.37181 c 0,0 -1.48304,-0.53237 -1.63515,1.31192 0,0 -0.0243,1.75889 1.7112,1.84429 m 7.54828,-0.49435 c 0,0 1.59712,0.4183 1.63515,-1.76823 0,0 0.076,-1.88232 -1.78725,-1.31192 m -3.04385,6.36851 c 2.28159,-1.25487 1.14252,-2.43276 1.14252,-2.43276 1.5781,-2.11047 0.47533,-2.83298 0.47533,-2.83298 -1.59712,-1.29291 -2.24357,0.11408 -2.24357,0.11408 0,0 -0.98869,-1.08376 -1.9964,-0.019 0,0 -1.33093,1.10276 0.53238,2.81396 0,0 -0.78126,2.24262 2.08974,2.3567 z m -1.43953,-0.32192 c -3.08749,-0.67119 -3.1874,-4.04223 -3.1874,-4.04223 -0.0573,-4.07166 4.12905,-4.12906 4.12905,-4.12906 0,0 3.61548,-0.0373 3.89747,3.72815 0,0 -0.0951,3.20143 -2.44426,4.10754"
       mask="url(#mask251)"
       transform="matrix(29.388309,0,0,29.388309,-4027.5755,-3824.4233)"
       sodipodi:nodetypes="cccccccccccccccccccccccccccccccccccccccc" /></g></svg>
