<?xml version="1.0" encoding="UTF-8" standalone="no"?>
<!-- Created with Inkscape (http://www.inkscape.org/) -->

<svg
   width="210mm"
   height="297mm"
   viewBox="0 0 793.70081 1122.5197"
   version="1.1"
   id="svg1"
   inkscape:version="1.4 (e7c3feb100, 2024-10-09)"
   sodipodi:docname="mostacillas.svg"
   xml:space="preserve"
   xmlns:inkscape="http://www.inkscape.org/namespaces/inkscape"
   xmlns:sodipodi="http://sodipodi.sourceforge.net/DTD/sodipodi-0.dtd"
   xmlns="http://www.w3.org/2000/svg"
   xmlns:svg="http://www.w3.org/2000/svg"><sodipodi:namedview
     id="namedview1"
     pagecolor="#ffffff"
     bordercolor="#111111"
     borderopacity="1"
     inkscape:showpageshadow="0"
     inkscape:pageopacity="0"
     inkscape:pagecheckerboard="1"
     inkscape:deskcolor="#d1d1d1"
     inkscape:document-units="mm"
     inkscape:zoom="2.2673507"
     inkscape:cx="541.38075"
     inkscape:cy="677.66315"
     inkscape:window-width="1534"
     inkscape:window-height="803"
     inkscape:window-x="0"
     inkscape:window-y="0"
     inkscape:window-maximized="1"
     inkscape:current-layer="layer1" /><defs
     id="defs1"><inkscape:path-effect
       effect="powerstroke"
       message=""
       id="path-effect15"
       is_visible="true"
       lpeversion="1.3"
       scale_width="1"
       interpolator_type="CentripetalCatmullRom"
       interpolator_beta="0.2"
       start_linecap_type="zerowidth"
       end_linecap_type="zerowidth"
       offset_points="0.20003987,8.6842858 | 0.49322631,11.827894 | 0.79859879,6.6870079"
       linejoin_type="round"
       miter_limit="4"
       not_jump="false"
       sort_points="true" /><inkscape:path-effect
       effect="powerstroke"
       message=""
       id="path-effect12"
       is_visible="true"
       lpeversion="1.3"
       scale_width="1"
       interpolator_type="SpiroInterpolator"
       interpolator_beta="0.2"
       start_linecap_type="zerowidth"
       end_linecap_type="zerowidth"
       offset_points="0.2,1.889765 | 0.9601843,1.889765 | 1.9275823,2.2418239"
       linejoin_type="round"
       miter_limit="4"
       not_jump="false"
       sort_points="true" /><inkscape:path-effect
       effect="powerstroke"
       message=""
       id="path-effect11"
       is_visible="true"
       lpeversion="1.3"
       scale_width="1"
       interpolator_type="CentripetalCatmullRom"
       interpolator_beta="0.2"
       start_linecap_type="zerowidth"
       end_linecap_type="zerowidth"
       offset_points="0.2,1.889765 | 0.5,1.889765 | 0.8,1.889765"
       linejoin_type="round"
       miter_limit="4"
       not_jump="false"
       sort_points="true" /><inkscape:path-effect
       effect="powerstroke"
       message=""
       id="path-effect7"
       is_visible="true"
       lpeversion="1.3"
       scale_width="1"
       interpolator_type="CentripetalCatmullRom"
       interpolator_beta="0.2"
       start_linecap_type="zerowidth"
       end_linecap_type="zerowidth"
       offset_points="3.8,1.889765 | 2.5,1.889765 | 1.2,1.889765"
       linejoin_type="round"
       miter_limit="4"
       not_jump="false"
       sort_points="true" /></defs><g
     inkscape:label="Layer 1"
     inkscape:groupmode="layer"
     id="layer1"><rect
       style="fill:#e6e0b4;stroke-width:0.377953;stroke-linecap:round;stroke-linejoin:round;fill-opacity:1"
       id="rect1"
       width="793.70081"
       height="1122.5197"
       x="0"
       y="0" /><path
       style="fill:#cfcaa2;fill-opacity:1;stroke:none;stroke-width:3.77953;stroke-linecap:round;stroke-linejoin:round;stroke-dasharray:none;stroke-opacity:1"
       d="m 496.73527,854.46566 c 0,0 -25.84544,9.92924 94.26437,14.43132 108.39817,4.06309 98.09817,-11.32847 98.09817,-11.32847 0,0 -0.63248,-7.69513 -83.04767,-10.07286 0,0 -43.16028,-4.21417 -109.31487,6.97001 z"
       id="path15"
       sodipodi:nodetypes="csccc" /><path
       style="fill:#000000;fill-opacity:1;fill-rule:nonzero;stroke:none;stroke-width:3.77953;stroke-linecap:round;stroke-linejoin:round;stroke-opacity:1"
       d="m 696.1014,1040.6972 c -3.18975,-2.4254 -11.39209,-8.9339 -18.71109,-14.3734 -0.70358,-5.9387 -1.39598,-11.6831 -2.06108,-17.0649 -2.87485,-23.26231 -6.08023,-47.08025 -9.31013,-70.93941 a 1.9866376,1.9611356 85.501537 0 0 -1.98774,-1.72012 c -4.81496,0.10116 -9.63531,0.20966 -14.4194,0.26872 -4.78409,0.0591 -9.60565,0.0696 -14.42164,0.0873 a 1.958953,1.9873745 5.8465294 0 0 -1.91573,1.58293 c -4.95451,23.85451 -9.88157,47.66911 -14.43848,70.94573 -1.05409,5.3843 -2.16173,11.1326 -3.29463,17.0762 -6.2041,3.8637 -13.10607,8.5378 -15.80444,10.2667 3.05431,-1.3263 11.27837,-4.6478 18.10942,-7.7482 a 1.7275391,1.4240368 87.258181 0 0 0.85619,-1.1463 c 1.34991,-6.1564 2.64369,-12.1152 3.83612,-17.69 4.85387,-22.69234 9.58441,-45.99746 14.30333,-69.36031 4.28132,-0.0908 8.56325,-0.18234 12.81652,-0.23485 4.20011,-0.0519 8.42909,-0.0663 12.65783,-0.0811 3.02262,23.29885 6.06128,46.54048 9.26602,69.18924 0.7893,5.5782 1.65211,11.542 2.55673,17.7045 a 1.4563457,1.7365366 7.984491 0 0 0.73754,1.1803 c 8.00593,4.736 17.64496,10.0028 21.22466,12.0569 z"
       id="path7"
       inkscape:path-effect="#path-effect7"
       inkscape:original-d="m 696.1014,1040.6972 -20.29554,-13.4581 -11.75005,-88.65942 -28.84104,0.35607 -18.15916,88.65945 -17.31857,9.2318"
       sodipodi:nodetypes="cccccc"
       transform="matrix(1.4209737,0,0,1.4209737,-329.39789,-608.10615)" /><path
       style="fill:#d8ce83;fill-opacity:1;stroke:#000000;stroke-width:5.37061;stroke-linecap:round;stroke-linejoin:round;stroke-dasharray:none;stroke-opacity:1"
       d="m 564.36627,723.21883 27.57967,-87.18195 30.45735,85.89188 z"
       id="path8"
       sodipodi:nodetypes="ccc" /><path
       style="fill:#a74733;fill-opacity:1;stroke:none;stroke-width:5.37061;stroke-linecap:round;stroke-linejoin:round;stroke-opacity:1"
       d="m 600.41268,664.58684 -5.04646,10.45339 3.06392,19.64515 -4.32554,8.11039 -6.12784,-6.12785 1.44185,-22.88931 -4.32555,-9.01153 3.2907,-9.34705 h 9.5487 z"
       id="path11"
       sodipodi:nodetypes="cccccccccc" /><path
       style="fill:#000000;fill-opacity:1;fill-rule:nonzero;stroke:none;stroke-width:3.77953;stroke-linecap:round;stroke-linejoin:round;stroke-opacity:1"
       d="m 722.7051,864.7275 -7.49558,3.79169 c -7.93701,6.6737 -15.90002,13.31624 -23.88902,19.92763 -0.13773,0.11398 -0.27547,0.22795 -0.41321,0.34191 -12.90445,-4.68868 -25.78953,-9.43137 -38.65524,-14.22807 l -3.86297,0.99603 2.34912,3.22432 c 13.32083,4.59174 26.62125,9.24034 39.90128,13.94581 a 1.9113279,1.8798327 34.473536 0 0 1.85514,-0.3288 c 0.41557,-0.34972 0.83121,-0.69935 1.24692,-1.04889 7.93701,-6.6737 15.90002,-13.31625 23.88902,-19.92763 z"
       id="path12"
       inkscape:path-effect="#path-effect12"
       inkscape:original-d="m 722.7051,864.7275 -31.4253,26.21421 -42.89072,-15.38502"
       sodipodi:nodetypes="ccc"
       transform="matrix(1.4209737,0,0,1.4209737,-332.23984,-608.10615)" /><path
       style="fill:none;fill-opacity:1;stroke:#000000;stroke-width:5.37061;stroke-linecap:round;stroke-linejoin:round;stroke-dasharray:none;stroke-opacity:1"
       d="m 591.94594,636.96443 -55.95428,22.24294 37.55209,35.00058"
       id="path13"
       sodipodi:nodetypes="ccc" /><path
       style="fill:#edd290;fill-opacity:1;stroke:#000000;stroke-width:5.37061;stroke-linecap:round;stroke-linejoin:round;stroke-dasharray:none;stroke-opacity:1"
       d="m 591.75293,636.39953 c 0,0 3.49384,-6.6383 0.52408,-12.22845 0,0 9.78274,-1.39753 14.67411,-7.86114 0,0 10.13214,-11.00558 1.92161,-22.70996 0,0 -15.54758,-15.72228 -31.96862,-5.06605 0,0 -11.0056,7.33705 -7.51175,20.96302 0,0 5.76483,11.87906 22.70996,14.67413"
       id="path14" /></g></svg>
