<?xml version="1.0" encoding="UTF-8" standalone="no"?>
<!-- Uploaded to: SVG Repo, www.svgrepo.com, Generator: SVG Repo Mixer Tools -->

<svg
   width="780"
   height="645.64697"
   viewBox="0 0 23.4 19.369409"
   fill="none"
   version="1.1"
   id="svg1"
   sodipodi:docname="placebo.svg"
   xml:space="preserve"
   inkscape:export-filename="leggiamo/public/colores.svg"
   inkscape:export-xdpi="96"
   inkscape:export-ydpi="96"
   inkscape:version="1.4.2 (ebf0e940d0, 2025-05-08)"
   xmlns:inkscape="http://www.inkscape.org/namespaces/inkscape"
   xmlns:sodipodi="http://sodipodi.sourceforge.net/DTD/sodipodi-0.dtd"
   xmlns="http://www.w3.org/2000/svg"
   xmlns:svg="http://www.w3.org/2000/svg"><defs
     id="defs1" /><sodipodi:namedview
     id="namedview1"
     pagecolor="#cfcfcf"
     bordercolor="#eeeeee"
     borderopacity="1"
     inkscape:showpageshadow="0"
     inkscape:pageopacity="0"
     inkscape:pagecheckerboard="true"
     inkscape:deskcolor="#505050"
     showguides="false"
     inkscape:zoom="1.1025641"
     inkscape:cx="389.99999"
     inkscape:cy="322.88372"
     inkscape:window-width="1920"
     inkscape:window-height="963"
     inkscape:window-x="0"
     inkscape:window-y="0"
     inkscape:window-maximized="1"
     inkscape:current-layer="svg1"><inkscape:page
       x="0"
       y="0"
       width="23.4"
       height="19.36941"
       id="page2"
       margin="0"
       bleed="0" /></sodipodi:namedview><path
     fill-rule="evenodd"
     clip-rule="evenodd"
     d="m 20.768854,2.6311016 c 1.113092,0 2.015355,0.902291 2.015355,2.015317 V 16.738263 c 0,1.112977 -0.902263,2.015351 -2.015355,2.015351 H 2.6311047 c -1.113027,0 -2.01530604,-0.902374 -2.01530604,-2.015351 V 2.6311016 c 0,-1.113027 0.90227904,-2.01530606 2.01530604,-2.01530606 h 6.045924 c 1.128558,0 1.8469353,0.47909706 2.5685213,1.38940606 0.01977,0.02511 0.06826,0.08747 0.121922,0.156645 0.07598,0.09794 0.16306,0.210131 0.193978,0.248396 0.03112,0.03874 0.05754,0.07077 0.07931,0.09724 0.08868,0.107787 0.101361,0.123416 0.06111,0.123625 z"
     fill="#000000"
     id="path624"
     sodipodi:nodetypes="ssssssssscccccs"
     style="fill:#b9c2a9;fill-opacity:1;stroke:#727d5f;stroke-width:1.23159;stroke-linejoin:round;stroke-dasharray:none;stroke-opacity:1"
     inkscape:export-filename="leggiamo/public/colores.svg"
     inkscape:export-xdpi="96"
     inkscape:export-ydpi="96" /><style
     type="text/css"
     id="style1">
	.st0{fill:#000000;}
</style><style
     type="text/css"
     id="style1-6">
	.puchipuchi_een{fill:#111918;}
</style><path
     class="puchipuchi_een"
     d="m 14.436064,10.348013 c 0.109463,-0.0974 0.285294,-0.006 0.261806,0.145448 -0.223667,1.445435 -1.473232,2.551921 -2.981155,2.551921 -1.666087,0 -3.0167113,-1.350624 -3.0167113,-3.01671 0,-1.5115874 1.111873,-2.7635214 2.5622643,-2.9826634 0.14825,-0.0224 0.236165,0.150404 0.140278,0.257497 -0.340242,0.380537 -0.547749,0.881741 -0.547749,1.43229 0,1.190093 0.964701,2.1547944 2.154794,2.1547944 0.547747,0 1.046798,-0.205352 1.426473,-0.542577 z"
     id="path596"
     style="fill:#727d5f;stroke-width:0.215479;fill-opacity:1" /></svg>
