<?xml version="1.0" encoding="UTF-8" standalone="no"?>
<!-- Created with Inkscape (http://www.inkscape.org/) -->

<svg
   width="210mm"
   height="297mm"
   viewBox="0 0 793.70081 1122.5197"
   version="1.1"
   id="svg1"
   inkscape:version="1.4 (e7c3feb100, 2024-10-09)"
   sodipodi:docname="rocas.svg"
   xml:space="preserve"
   xmlns:inkscape="http://www.inkscape.org/namespaces/inkscape"
   xmlns:sodipodi="http://sodipodi.sourceforge.net/DTD/sodipodi-0.dtd"
   xmlns="http://www.w3.org/2000/svg"
   xmlns:svg="http://www.w3.org/2000/svg"><sodipodi:namedview
     id="namedview1"
     pagecolor="#ffffff"
     bordercolor="#111111"
     borderopacity="1"
     inkscape:showpageshadow="0"
     inkscape:pageopacity="0"
     inkscape:pagecheckerboard="1"
     inkscape:deskcolor="#d1d1d1"
     inkscape:document-units="mm"
     inkscape:zoom="1.0205446"
     inkscape:cx="317.47756"
     inkscape:cy="635.93498"
     inkscape:window-width="1536"
     inkscape:window-height="808"
     inkscape:window-x="0"
     inkscape:window-y="0"
     inkscape:window-maximized="1"
     inkscape:current-layer="layer1" /><defs
     id="defs1" /><g
     inkscape:label="bg"
     inkscape:groupmode="layer"
     id="layer1"><rect
       style="fill:#86a2d3;fill-opacity:1;stroke-width:15.9118;stroke-linecap:round;stroke-linejoin:round"
       id="rect2"
       width="793.70081"
       height="618.22632"
       x="0"
       y="0" /><path
       id="rect1"
       style="fill:#d4c897;stroke-width:0.299344;stroke-linecap:round;stroke-linejoin:round;fill-opacity:1"
       d="m 0,418.37672 793.70081,30.05488 v 674.088 H 0 Z"
       sodipodi:nodetypes="ccccc" /><path
       style="fill:#635d49;fill-opacity:1;stroke:#3b382c;stroke-width:3.77953;stroke-linecap:round;stroke-linejoin:round;stroke-dasharray:none;stroke-opacity:1"
       d="m 323.60009,329.91586 210.25417,8.17846 -0.28033,-32.50026 -209.94672,-5.41695 z"
       id="path5"
       sodipodi:nodetypes="ccccc" /><path
       id="rect4"
       style="fill:#877f64;fill-opacity:1;stroke:#3b382c;stroke-width:3.77953;stroke-linecap:round;stroke-linejoin:round;stroke-dasharray:none;stroke-opacity:1"
       d="m 420.79069,264.53204 88.73557,0.88564 -252.81372,311.13492 -96.98175,-2.05194 z"
       sodipodi:nodetypes="ccccc" /><path
       style="fill:#635d49;fill-opacity:1;stroke:#3b382c;stroke-width:3.77953;stroke-linecap:round;stroke-linejoin:round;stroke-dasharray:none;stroke-opacity:1"
       d="m 591.02595,265.85449 v -30.14711 l -57.45202,69.88668 0.28033,32.50026 z"
       id="path4"
       sodipodi:nodetypes="ccccc" /><path
       id="rect3"
       style="fill:#877f64;fill-opacity:1;stroke:#3b382c;stroke-width:3.77953;stroke-linecap:round;stroke-linejoin:round;stroke-dasharray:none;stroke-opacity:1"
       d="m 381.07986,230.29044 209.94609,5.41694 -57.45202,69.88668 -209.94672,-5.41695 z"
       sodipodi:nodetypes="ccccc" /><path
       style="fill:#635d49;fill-opacity:1;stroke:#3b382c;stroke-width:3.77953;stroke-linecap:round;stroke-linejoin:round;stroke-dasharray:none;stroke-opacity:1"
       d="m 403.34259,431.86711 c -26.13057,-0.98948 -42.33052,16.32527 -42.33052,16.32527 L 476.82323,305.66492 v 30.21101 z"
       id="path6"
       sodipodi:nodetypes="ccccc" /><path
       style="fill:none;fill-opacity:1;stroke:#3b382c;stroke-width:3.77953;stroke-linecap:round;stroke-linejoin:round;stroke-dasharray:none;stroke-opacity:1"
       d="m 338.78054,282.17711 208.79339,5.41695"
       id="path11"
       sodipodi:nodetypes="cc" /><path
       style="fill:none;fill-opacity:1;stroke:#3b382c;stroke-width:3.77953;stroke-linecap:round;stroke-linejoin:round;stroke-dasharray:none;stroke-opacity:1"
       d="m 352.74017,265.19927 208.79339,5.41695"
       id="path13"
       sodipodi:nodetypes="cc" /><path
       style="fill:none;fill-opacity:1;stroke:#3b382c;stroke-width:3.77953;stroke-linecap:round;stroke-linejoin:round;stroke-dasharray:none;stroke-opacity:1"
       d="m 368.74017,247.19927 208.79339,5.41695"
       id="path14"
       sodipodi:nodetypes="cc" /><path
       style="fill:none;fill-opacity:1;stroke:#3b382c;stroke-width:3.77953;stroke-linecap:square;stroke-linejoin:round;stroke-dasharray:none;stroke-opacity:1"
       d="m 375.91627,319.83587 85.00058,2.19315"
       id="path15" /><path
       style="fill:none;fill-opacity:1;stroke:#3b382c;stroke-width:3.77953;stroke-linecap:square;stroke-linejoin:round;stroke-dasharray:none;stroke-opacity:1"
       d="m 361.91627,337.83587 85.00058,2.19315"
       id="path16" /><path
       style="fill:none;fill-opacity:1;stroke:#3b382c;stroke-width:3.77953;stroke-linecap:square;stroke-linejoin:round;stroke-dasharray:none;stroke-opacity:1"
       d="m 343.91627,357.83587 85.00058,2.19315"
       id="path17" /><path
       style="fill:none;fill-opacity:1;stroke:#3b382c;stroke-width:3.77953;stroke-linecap:square;stroke-linejoin:round;stroke-dasharray:none;stroke-opacity:1"
       d="m 327.91627,377.83587 85.00058,2.19315"
       id="path18" /><path
       style="fill:none;fill-opacity:1;stroke:#3b382c;stroke-width:3.77953;stroke-linecap:square;stroke-linejoin:round;stroke-dasharray:none;stroke-opacity:1"
       d="m 311.91627,395.83587 85.00058,2.19315"
       id="path19" /><path
       style="fill:none;fill-opacity:1;stroke:#3b382c;stroke-width:3.77953;stroke-linecap:square;stroke-linejoin:round;stroke-dasharray:none;stroke-opacity:1"
       d="m 297.91627,413.83587 85.00058,2.19315"
       id="path20" /><path
       style="fill:none;fill-opacity:1;stroke:#3b382c;stroke-width:3.77953;stroke-linecap:square;stroke-linejoin:round;stroke-dasharray:none;stroke-opacity:1"
       d="m 281.91627,433.83587 85.00058,2.19315"
       id="path21" /><path
       style="fill:none;fill-opacity:1;stroke:#3b382c;stroke-width:3.77953;stroke-linecap:square;stroke-linejoin:round;stroke-dasharray:none;stroke-opacity:1"
       d="m 265.91627,453.83587 85.00058,2.19315"
       id="path22" /><path
       style="fill:none;fill-opacity:1;stroke:#3b382c;stroke-width:3.77953;stroke-linecap:square;stroke-linejoin:round;stroke-dasharray:none;stroke-opacity:1"
       d="m 247.91627,475.83587 85.00058,2.19315"
       id="path23" /><path
       style="fill:none;fill-opacity:1;stroke:#3b382c;stroke-width:3.77953;stroke-linecap:square;stroke-linejoin:round;stroke-dasharray:none;stroke-opacity:1"
       d="m 229.91627,495.83587 85.00058,2.19315"
       id="path24" /><path
       style="fill:none;fill-opacity:1;stroke:#706a50;stroke-width:3.77953;stroke-linecap:round;stroke-linejoin:round;stroke-dasharray:none;stroke-opacity:1"
       d="m 65.004311,481.46307 c 1.56142,-0.59512 3.46496,-0.40841 4.99686,-1.07178 0.46604,-0.20184 0.71726,-0.76535 1.18957,-0.95205 0.8449,-0.33402 1.80965,-0.26522 2.66497,-0.57161 0.77838,-0.27875 1.40833,-0.89407 2.18897,-1.16639 1.50121,-0.5237 3.10914,-0.66688 4.66371,-1.00034 1.4194,-0.30443 4.20116,-1.54611 5.73453,-0.88153 1.65435,0.71699 4.83085,3.2485 6.21152,4.5913 0.71209,0.69258 1.90429,0.729 2.68911,1.16546 0.49625,0.27598 0.80838,0.80974 1.28517,1.11814 1.24179,0.80315 0.23522,-0.25407 1.40393,0.0473 0.79301,0.20448 1.49155,0.6993 2.284539,0.90379 0.37389,0.0965 5.19612,0.53783 5.68723,0.52238 0.68105,-0.0215 1.32399,-0.33365 1.99872,-0.42872 4.08562,-0.57566 1.33249,-0.0443 4.47352,-0.26265 1.28171,-0.0891 2.7656,-0.59319 3.99744,-0.8574 2.55393,-0.5478 5.10788,-1.09559 7.66182,-1.64339 1.03203,-0.22141 6.19349,-1.70729 6.99556,-1.50048 1.10858,0.28588 2.06458,0.31762 3.21244,0.35632 1.41431,0.0476 2.45176,1.10424 3.42683,1.35566 1.15175,0.29701 2.39384,-0.0125 3.54559,0.28485 1.5349,0.39579 3.4974,0.97351 4.90219,1.73611 1.39138,0.75532 1.43616,1.21048 3.16514,1.76026 0.41986,0.13343 5.69964,1.56508 6.5678,1.37886"
       id="path27" /><path
       style="fill:none;fill-opacity:1;stroke:#706a50;stroke-width:3.77953;stroke-linecap:round;stroke-linejoin:round;stroke-dasharray:none;stroke-opacity:1"
       d="m 398.74017,554.45645 c 1.56142,-0.59512 3.46496,-0.40841 4.99686,-1.07178 0.46604,-0.20184 0.71726,-0.76535 1.18957,-0.95205 0.8449,-0.33402 1.80965,-0.26522 2.66497,-0.57161 0.77838,-0.27875 1.40833,-0.89407 2.18897,-1.16639 1.50121,-0.5237 3.10914,-0.66688 4.66371,-1.00034 1.4194,-0.30443 4.20116,-1.54611 5.73453,-0.88153 1.65435,0.71699 4.83085,3.2485 6.21152,4.5913 0.71209,0.69258 1.90429,0.729 2.68911,1.16546 0.49625,0.27598 0.80838,0.80974 1.28517,1.11814 1.24179,0.80315 0.23522,-0.25407 1.40393,0.0473 0.79301,0.20448 1.49155,0.6993 2.28454,0.90379 0.37389,0.0965 5.19612,0.53783 5.68723,0.52238 0.68105,-0.0215 1.32399,-0.33365 1.99872,-0.42872 4.08562,-0.57566 1.33249,-0.0443 4.47352,-0.26265 1.28171,-0.0891 2.7656,-0.59319 3.99744,-0.8574 2.55393,-0.5478 5.10788,-1.09559 7.66182,-1.64339 1.03203,-0.22141 6.19349,-1.70729 6.99556,-1.50048 1.10858,0.28588 2.06458,0.31762 3.21244,0.35632 1.41431,0.0476 2.45176,1.10424 3.42683,1.35566 1.15175,0.29701 2.39384,-0.0125 3.54559,0.28485 1.5349,0.39579 3.4974,0.97351 4.90219,1.73611 1.39138,0.75532 1.43616,1.21048 3.16514,1.76026 0.41986,0.13343 5.69964,1.56508 6.5678,1.37886"
       id="path28" /><path
       style="fill:none;fill-opacity:1;stroke:#706a50;stroke-width:3.77953;stroke-linecap:round;stroke-linejoin:round;stroke-dasharray:none;stroke-opacity:1"
       d="m 606.53574,519.82385 c 1.56142,-0.59512 3.46496,-0.40841 4.99686,-1.07178 0.46604,-0.20184 0.71726,-0.76535 1.18957,-0.95205 0.8449,-0.33402 1.80965,-0.26522 2.66497,-0.57161 0.77838,-0.27875 1.40833,-0.89407 2.18897,-1.16639 1.50121,-0.5237 3.10914,-0.66688 4.66371,-1.00034 1.4194,-0.30443 4.20116,-1.54611 5.73453,-0.88153 1.65435,0.71699 4.83085,3.2485 6.21152,4.5913 0.71209,0.69258 1.90429,0.729 2.68911,1.16546 0.49625,0.27598 0.80838,0.80974 1.28517,1.11814 1.24179,0.80315 0.23522,-0.25407 1.40393,0.0473 0.79301,0.20448 1.49155,0.6993 2.28454,0.90379 0.37389,0.0965 5.19612,0.53783 5.68723,0.52238 0.68105,-0.0215 1.32399,-0.33365 1.99872,-0.42872 4.08562,-0.57566 1.33249,-0.0443 4.47352,-0.26265 1.28171,-0.0891 2.7656,-0.59319 3.99744,-0.8574 2.55393,-0.5478 5.10788,-1.09559 7.66182,-1.64339 1.03203,-0.22141 6.19349,-1.70729 6.99556,-1.50048 1.10858,0.28588 2.06458,0.31762 3.21244,0.35632 1.41431,0.0476 2.45176,1.10424 3.42683,1.35566 1.15175,0.29701 2.39384,-0.0125 3.54559,0.28485 1.5349,0.39579 3.4974,0.97351 4.90219,1.73611 1.39138,0.75532 1.43616,1.21048 3.16514,1.76026 0.41986,0.13343 5.69964,1.56508 6.5678,1.37886"
       id="path29" /><path
       style="fill:none;fill-opacity:1;stroke:#706a50;stroke-width:3.77953;stroke-linecap:round;stroke-linejoin:round;stroke-dasharray:none;stroke-opacity:1"
       d="m 620.00397,618.50231 c 1.56142,-0.59512 3.46496,-0.40841 4.99686,-1.07178 0.46604,-0.20184 0.71726,-0.76535 1.18957,-0.95205 0.8449,-0.33402 1.80965,-0.26522 2.66497,-0.57161 0.77838,-0.27875 1.40833,-0.89407 2.18897,-1.16639 1.50121,-0.5237 3.10914,-0.66688 4.66371,-1.00034 1.4194,-0.30443 4.20116,-1.54611 5.73453,-0.88153 1.65435,0.71699 4.83085,3.2485 6.21152,4.5913 0.71209,0.69258 1.90429,0.729 2.68911,1.16546 0.49625,0.27598 0.80838,0.80974 1.28517,1.11814 1.24179,0.80315 0.23522,-0.25407 1.40393,0.0473 0.79301,0.20448 1.49155,0.6993 2.28454,0.90379 0.37389,0.0965 5.19612,0.53783 5.68723,0.52238 0.68105,-0.0215 1.32399,-0.33365 1.99872,-0.42872 4.08562,-0.57566 1.33249,-0.0443 4.47352,-0.26265 1.28171,-0.0891 2.7656,-0.59319 3.99744,-0.8574 2.55393,-0.5478 5.10788,-1.09559 7.66182,-1.64339 1.03203,-0.22141 6.19349,-1.70729 6.99556,-1.50048 1.10858,0.28588 2.06458,0.31762 3.21244,0.35632 1.41431,0.0476 2.45176,1.10424 3.42683,1.35566 1.15175,0.29701 2.39384,-0.0125 3.54559,0.28485 1.5349,0.39579 3.4974,0.97351 4.90219,1.73611 1.39138,0.75532 1.43616,1.21048 3.16514,1.76026 0.41986,0.13343 5.69964,1.56508 6.5678,1.37886"
       id="path30" /><path
       style="fill:none;fill-opacity:1;stroke:#706a50;stroke-width:3.77953;stroke-linecap:round;stroke-linejoin:round;stroke-dasharray:none;stroke-opacity:1"
       d="m 92.81891,772.42496 c 1.56142,-0.59512 3.46496,-0.40841 4.99686,-1.07178 0.46604,-0.20184 0.71726,-0.76535 1.18957,-0.95205 0.8449,-0.33402 1.80965,-0.26522 2.66497,-0.57161 0.77838,-0.27875 1.40833,-0.89407 2.18897,-1.16639 1.50121,-0.5237 3.10914,-0.66688 4.66371,-1.00034 1.4194,-0.30443 4.20116,-1.54611 5.73453,-0.88153 1.65435,0.71699 4.83085,3.2485 6.21152,4.5913 0.71209,0.69258 1.90429,0.729 2.68911,1.16546 0.49625,0.27598 0.80838,0.80974 1.28517,1.11814 1.24179,0.80315 0.23522,-0.25407 1.40393,0.0473 0.79301,0.20448 1.49155,0.6993 2.28454,0.90379 0.37389,0.0965 5.19612,0.53783 5.68723,0.52238 0.68105,-0.0215 1.32399,-0.33365 1.99872,-0.42872 4.08562,-0.57566 1.33249,-0.0443 4.47352,-0.26265 1.28171,-0.0891 2.7656,-0.59319 3.99744,-0.8574 2.55393,-0.5478 5.10788,-1.09559 7.66182,-1.64339 1.03203,-0.22141 6.19349,-1.70729 6.99556,-1.50048 1.10858,0.28588 2.06458,0.31762 3.21244,0.35632 1.41431,0.0476 2.45176,1.10424 3.42683,1.35566 1.15175,0.29701 2.39384,-0.0125 3.54559,0.28485 1.5349,0.39579 3.4974,0.97351 4.90219,1.73611 1.39138,0.75532 1.43616,1.21048 3.16514,1.76026 0.41986,0.13343 5.69964,1.56508 6.5678,1.37886"
       id="path31" /><path
       style="fill:none;fill-opacity:1;stroke:#706a50;stroke-width:3.77953;stroke-linecap:round;stroke-linejoin:round;stroke-dasharray:none;stroke-opacity:1"
       d="m 196.7167,930.19567 c 1.56142,-0.59512 3.46496,-0.40841 4.99686,-1.07178 0.46604,-0.20184 0.71726,-0.76535 1.18957,-0.95205 0.8449,-0.33402 1.80965,-0.26522 2.66497,-0.57161 0.77838,-0.27875 1.40833,-0.89407 2.18897,-1.16639 1.50121,-0.5237 3.10914,-0.66688 4.66371,-1.00034 1.4194,-0.30443 4.20116,-1.54611 5.73453,-0.88153 1.65435,0.71699 4.83085,3.2485 6.21152,4.5913 0.71209,0.69258 1.90429,0.729 2.68911,1.16546 0.49625,0.27598 0.80838,0.80974 1.28517,1.11814 1.24179,0.80315 0.23522,-0.25407 1.40393,0.0473 0.79301,0.20448 1.49155,0.6993 2.28454,0.90379 0.37389,0.0965 5.19612,0.53783 5.68723,0.52238 0.68105,-0.0215 1.32399,-0.33365 1.99872,-0.42872 4.08562,-0.57566 1.33249,-0.0443 4.47352,-0.26265 1.28171,-0.0891 2.7656,-0.59319 3.99744,-0.8574 2.55393,-0.5478 5.10788,-1.09559 7.66182,-1.64339 1.03203,-0.22141 6.19349,-1.70729 6.99556,-1.50048 1.10858,0.28588 2.06458,0.31762 3.21244,0.35632 1.41431,0.0476 2.45176,1.10424 3.42683,1.35566 1.15175,0.29701 2.39384,-0.0125 3.54559,0.28485 1.5349,0.39579 3.4974,0.97351 4.90219,1.73611 1.39138,0.75532 1.43616,1.21048 3.16514,1.76026 0.41986,0.13343 5.69964,1.56508 6.5678,1.37886"
       id="path32" /><path
       style="fill:none;fill-opacity:1;stroke:#706a50;stroke-width:3.77953;stroke-linecap:round;stroke-linejoin:round;stroke-dasharray:none;stroke-opacity:1"
       d="m -8.8514,1057.1819 c 1.56142,-0.5952 3.46496,-0.4085 4.99686,-1.0718 0.46604,-0.2019 0.71726,-0.7654 1.18957,-0.9521 0.8449,-0.334 1.80965,-0.2652 2.66497,-0.5716 0.77838,-0.2787 1.40833,-0.8941 2.18897,-1.1664 1.50121,-0.5237 3.10914,-0.6669 4.66371,-1.0003 1.4194,-0.3044 4.20116,-1.5461 5.73453,-0.8815 1.65435,0.7169 4.83085,3.2485 6.21152,4.5913 0.71209,0.6925 1.90429,0.729 2.68911,1.1654 0.49625,0.276 0.80838,0.8098 1.28517,1.1182 1.24179,0.8031 0.23522,-0.2541 1.40393,0.047 0.79301,0.2044 1.49155,0.6993 2.28454,0.9037 0.37389,0.097 5.19612,0.5379 5.68723,0.5224 0.68105,-0.022 1.32399,-0.3336 1.99872,-0.4287 4.08562,-0.5757 1.33249,-0.044 4.47352,-0.2626 1.28171,-0.089 2.7656,-0.5932 3.99744,-0.8574 2.55393,-0.5478 5.10788,-1.0956 7.66182,-1.6434 1.03203,-0.2214 6.19349,-1.7073 6.99556,-1.5005 1.10858,0.2859 2.06458,0.3176 3.21244,0.3563 1.41431,0.048 2.45176,1.1042 3.42683,1.3557 1.15175,0.297 2.39384,-0.013 3.54559,0.2848 1.5349,0.3958 3.4974,0.9735 4.90219,1.7361 1.39138,0.7553 1.43616,1.2105 3.16514,1.7603 0.41986,0.1334 5.69964,1.5651 6.5678,1.3788"
       id="path33" /><path
       style="fill:none;fill-opacity:1;stroke:#294e8c;stroke-width:3.77953;stroke-linecap:square;stroke-linejoin:round;stroke-dasharray:none;stroke-opacity:1"
       d="m 632.74232,340.00184 c 0,0 22.88364,8.32132 45.55924,3.32853 0,0 28.91658,-14.14625 43.06283,2.49639"
       id="path34" /><path
       style="fill:none;fill-opacity:1;stroke:#294e8c;stroke-width:3.77953;stroke-linecap:square;stroke-linejoin:round;stroke-dasharray:none;stroke-opacity:1"
       d="m 281.12963,156.50927 c 0,0 22.88364,8.32132 45.55924,3.32853 0,0 28.91658,-14.14625 43.06283,2.49639"
       id="path35" /><path
       style="fill:none;fill-opacity:1;stroke:#294e8c;stroke-width:3.77953;stroke-linecap:square;stroke-linejoin:round;stroke-dasharray:none;stroke-opacity:1"
       d="m 604.87501,69.560511 c 0,0 22.88364,8.32132 45.55924,3.32853 0,0 28.91658,-14.14625 43.06283,2.49639"
       id="path36" /><path
       style="fill:none;fill-opacity:1;stroke:#294e8c;stroke-width:3.77953;stroke-linecap:square;stroke-linejoin:round;stroke-dasharray:none;stroke-opacity:1"
       d="m 88.732374,76.960405 c 0,0 22.883636,8.32132 45.559236,3.32853 0,0 28.91658,-14.14625 43.06283,2.49639"
       id="path37" /><path
       style="fill:none;fill-opacity:1;stroke:#294e8c;stroke-width:3.77953;stroke-linecap:square;stroke-linejoin:round;stroke-dasharray:none;stroke-opacity:1"
       d="m 108.1571,268.43267 c 0,0 22.88363,8.32132 45.55923,3.32853 0,0 28.91658,-14.14625 43.06283,2.49639"
       id="path38" /><path
       style="fill:#877f64;fill-opacity:1;stroke:#3b382c;stroke-width:3.77953;stroke-linecap:square;stroke-linejoin:round;stroke-dasharray:none;stroke-opacity:1"
       d="m 330.47605,577.63208 -170.74526,-3.13142 47.87503,-56.84427 168.9326,3.81786 z"
       id="path40"
       sodipodi:nodetypes="ccccc" /><path
       style="fill:#877f64;fill-opacity:1;stroke:#3b382c;stroke-width:3.77953;stroke-linecap:round;stroke-linejoin:round;stroke-dasharray:none;stroke-opacity:1"
       d="m 256.71254,576.5526 45.42675,-55.07835"
       id="path41"
       sodipodi:nodetypes="cc" /><path
       style="fill:#877f64;fill-opacity:1;stroke:#3b382c;stroke-width:3.77953;stroke-linecap:round;stroke-linejoin:round;stroke-dasharray:none;stroke-opacity:1"
       d="m 282.07077,576.74434 44.46765,-55.27009"
       id="path42"
       sodipodi:nodetypes="cc" /><path
       style="fill:#877f64;fill-opacity:1;stroke:#3b382c;stroke-width:3.77953;stroke-linecap:round;stroke-linejoin:round;stroke-dasharray:none;stroke-opacity:1"
       d="m 307.59758,577.2125 44.94084,-55.73825"
       id="path43"
       sodipodi:nodetypes="cc" /></g></svg>
