<?xml version="1.0" encoding="UTF-8" standalone="no"?>
<!-- Uploaded to: SVG Repo, www.svgrepo.com, Generator: SVG Repo Mixer Tools -->

<svg
   width="780"
   height="480"
   viewBox="0 0 23.4 14.4"
   fill="none"
   version="1.1"
   id="svg1"
   sodipodi:docname="still.svg"
   xml:space="preserve"
   inkscape:export-filename="leggiamo/public/colores.svg"
   inkscape:export-xdpi="96"
   inkscape:export-ydpi="96"
   inkscape:version="1.4.2 (ebf0e940d0, 2025-05-08)"
   xmlns:inkscape="http://www.inkscape.org/namespaces/inkscape"
   xmlns:sodipodi="http://sodipodi.sourceforge.net/DTD/sodipodi-0.dtd"
   xmlns="http://www.w3.org/2000/svg"
   xmlns:svg="http://www.w3.org/2000/svg"><defs
     id="defs1" /><sodipodi:namedview
     id="namedview1"
     pagecolor="#cfcfcf"
     bordercolor="#eeeeee"
     borderopacity="1"
     inkscape:showpageshadow="0"
     inkscape:pageopacity="0"
     inkscape:pagecheckerboard="true"
     inkscape:deskcolor="#505050"
     showguides="false"
     inkscape:zoom="0.38981528"
     inkscape:cx="-160.33235"
     inkscape:cy="854.25076"
     inkscape:window-width="1920"
     inkscape:window-height="963"
     inkscape:window-x="0"
     inkscape:window-y="0"
     inkscape:window-maximized="1"
     inkscape:current-layer="svg1"><inkscape:page
       x="0"
       y="0"
       width="23.4"
       height="14.4"
       id="page2"
       margin="0"
       bleed="0" /></sodipodi:namedview><style
     type="text/css"
     id="style1">
	.st0{fill:#000000;}
</style><style
     type="text/css"
     id="style1-6">
	.puchipuchi_een{fill:#111918;}
</style><g
     style="fill:#727d5f;fill-opacity:1"
     id="g594"
     transform="matrix(0.79244533,0,0,0.79244533,2.1906558,-2.377336)"><path
       fill-rule="evenodd"
       clip-rule="evenodd"
       d="M 2,8.60555 C 2,5.50969 4.50969,3 7.60555,3 8.71223,3 9.79414,3.32758 10.715,3.94145 L 12,4.79815 13.285,3.94145 C 14.2059,3.32758 15.2878,3 16.3944,3 19.4903,3 22,5.50969 22,8.60555 v 0.73827 c 0,1.96598 -0.781,3.85138 -2.1711,5.24148 l -5.7076,5.7076 c -1.1716,1.1716 -3.071,1.1716 -4.24262,0 L 4.1711,14.5853 C 2.78097,13.1952 2,11.3098 2,9.34382 Z"
       fill="#152c70"
       id="path594"
       sodipodi:nodetypes="sscccsssssccss"
       style="fill:#727d5f;fill-opacity:1" /></g></svg>
